<?xml version="1.0" encoding="UTF-8" standalone="no"?>
<svg width="16px" height="16px" viewBox="0 0 16 16" version="1.1" xmlns="http://www.w3.org/2000/svg" xmlns:xlink="http://www.w3.org/1999/xlink" xmlns:sketch="http://www.bohemiancoding.com/sketch/ns">
    <!-- Generator: Sketch 3.3 (11970) - http://www.bohemiancoding.com/sketch -->
    <title>Fill 286</title>
    <desc>Created with Sketch.</desc>
    <defs></defs>
    <g id="Page-1" stroke="none" stroke-width="1" fill="none" fill-rule="evenodd" sketch:type="MSPage">
        <g id="Desktop---2---Search" sketch:type="MSArtboardGroup" transform="translate(-591.000000, -938.000000)" fill="#FFFFFF">
            <path d="M601.829333,946.685333 L599.533333,949.365333 L599.533333,940.666667 C599.533333,940.370933 599.2936,940.133333 599,940.133333 C598.704,940.133333 598.466667,940.370933 598.466667,940.666667 L598.466667,949.365333 L596.168,946.685333 C595.96,946.48 595.626667,946.48 595.418667,946.685333 C595.210667,946.893333 595.210667,947.229333 595.418667,947.434667 L598.6,951.144267 L598.610667,951.160267 L598.618667,951.178667 L598.6376,951.186667 C598.733333,951.277333 598.858933,951.333333 599,951.333333 C599.138667,951.333333 599.264,951.277333 599.36,951.186667 L599.378667,951.178667 L599.389333,951.160267 L599.4,951.144267 L602.578667,947.434667 C602.786667,947.229333 602.786667,946.893333 602.578667,946.685333 C602.373333,946.48 602.0376,946.48 601.829333,946.685333 L601.829333,946.685333 Z M599,952.933333 C595.170933,952.933333 592.066667,949.829333 592.066667,946 C592.066667,942.170933 595.170933,939.066667 599,939.066667 C602.829333,939.066667 605.933333,942.170933 605.933333,946 C605.933333,949.829333 602.829333,952.933333 599,952.933333 L599,952.933333 Z M599,938 C594.5816,938 591,941.5816 591,946 C591,950.418667 594.5816,954 599,954 C603.418667,954 607,950.418667 607,946 C607,941.5816 603.418667,938 599,938 L599,938 Z" id="Fill-286" sketch:type="MSShapeGroup"></path>
        </g>
    </g>
</svg>