<?xml version="1.0" encoding="UTF-8" standalone="no"?>
<svg width="17px" height="46px" viewBox="0 0 17 46" version="1.1" xmlns="http://www.w3.org/2000/svg" xmlns:xlink="http://www.w3.org/1999/xlink" xmlns:sketch="http://www.bohemiancoding.com/sketch/ns">
    <!-- Generator: Sketch 3.3.1 (12005) - http://www.bohemiancoding.com/sketch -->
    <title>ico_star</title>
    <desc>Created with Sketch.</desc>
    <defs></defs>
    <g id="Page-1" stroke="none" stroke-width="1" fill="none" fill-rule="evenodd" sketch:type="MSPage">
        <g id="ico_star" sketch:type="MSLayerGroup">
            <g id="Page-1" sketch:type="MSShapeGroup">
                <g id="ico_star">
                    <path d="M9.033906,42.110189 L8.481672,41.792684 L7.928906,42.110189 L4.698906,43.962468 L5.453281,40.382662 L5.562188,39.862404 L5.16375,39.485148 L2.342813,36.804856 L5.939375,36.497352 L6.555625,36.445101 L6.810625,35.914842 L8.5,32.417538 L10.189375,35.914842 L10.444375,36.445101 L11.060625,36.497352 L14.654531,36.804856 L11.435156,39.855154 L11.541406,40.372412 L12.274531,43.969968 L9.033906,42.110189 L9.033906,42.110189 Z M17,36.002344 L11.15625,35.499836 L8.5,30 L5.84375,35.499836 L0,36.002344 L4.409641,40.187409 L3.1875,46 L8.481672,42.964953 L13.77,46 L12.585313,40.184909 L17,36.002344 L17,36.002344 Z" id="Fill-248" fill="#FFFFFF"></path>
                    <path d="M9.0339063,12.1101892 L8.4816719,11.7926843 L7.9289063,12.1101892 L4.6989063,13.9624682 L5.4532813,10.3826622 L5.5621875,9.8624041 L5.16375,9.48514821 L2.3428125,6.80485633 L5.939375,6.49735152 L6.555625,6.4451007 L6.810625,5.91484242 L8.5,2.41753777 L10.189375,5.91484242 L10.444375,6.4451007 L11.060625,6.49735152 L14.6545313,6.80485633 L11.4351563,9.85515399 L11.5414063,10.3724121 L12.2745313,13.9699683 L9.0339063,12.1101892 L9.0339063,12.1101892 Z M17,6.00234379 L11.15625,5.49983593 L8.5,0 L5.84375,5.49983593 L0,6.00234379 L4.4096406,10.1874092 L3.1875,16 L8.4816719,12.9649526 L13.77,16 L12.5853125,10.1849091 L17,6.00234379 L17,6.00234379 Z" id="Fill-248" fill="#4A4A4A"></path>
                </g>
            </g>
        </g>
    </g>
</svg>