<?xml version="1.0" encoding="UTF-8" standalone="no"?>
<svg width="17px" height="16px" viewBox="0 0 17 16" version="1.1" xmlns="http://www.w3.org/2000/svg" xmlns:xlink="http://www.w3.org/1999/xlink" xmlns:sketch="http://www.bohemiancoding.com/sketch/ns">
    <!-- Generator: Sketch 3.3 (11970) - http://www.bohemiancoding.com/sketch -->
    <title>Fill 248</title>
    <desc>Created with Sketch.</desc>
    <defs></defs>
    <g id="Page-1" stroke="none" stroke-width="1" fill="none" fill-rule="evenodd" sketch:type="MSPage">
        <g id="Desktop---2---Search" sketch:type="MSArtboardGroup" transform="translate(-658.000000, -938.000000)" fill="#FFFFFF">
            <path d="M667.033906,950.110189 L666.481672,949.792684 L665.928906,950.110189 L662.698906,951.962468 L663.453281,948.382662 L663.562188,947.862404 L663.16375,947.485148 L660.342813,944.804856 L663.939375,944.497352 L664.555625,944.445101 L664.810625,943.914842 L666.5,940.417538 L668.189375,943.914842 L668.444375,944.445101 L669.060625,944.497352 L672.654531,944.804856 L669.435156,947.855154 L669.541406,948.372412 L670.274531,951.969968 L667.033906,950.110189 L667.033906,950.110189 Z M675,944.002344 L669.15625,943.499836 L666.5,938 L663.84375,943.499836 L658,944.002344 L662.409641,948.187409 L661.1875,954 L666.481672,950.964953 L671.77,954 L670.585313,948.184909 L675,944.002344 L675,944.002344 Z" id="Fill-248" sketch:type="MSShapeGroup"></path>
        </g>
    </g>
</svg>