<?xml version="1.0" encoding="UTF-8" standalone="no"?>
<svg width="16px" height="46px" viewBox="0 0 16 46" version="1.1" xmlns="http://www.w3.org/2000/svg" xmlns:xlink="http://www.w3.org/1999/xlink" xmlns:sketch="http://www.bohemiancoding.com/sketch/ns">
    <!-- Generator: Sketch 3.3.1 (12005) - http://www.bohemiancoding.com/sketch -->
    <title>ico_download</title>
    <desc>Created with Sketch.</desc>
    <defs></defs>
    <g id="Page-1" stroke="none" stroke-width="1" fill="none" fill-rule="evenodd" sketch:type="MSPage">
        <g id="ico_download" sketch:type="MSLayerGroup">
            <g id="Page-1" sketch:type="MSShapeGroup">
                <g id="ico_download">
                    <path d="M10.829333,38.685333 L8.533333,41.365333 L8.533333,32.666667 C8.533333,32.370933 8.2936,32.133333 8,32.133333 C7.704,32.133333 7.466667,32.370933 7.466667,32.666667 L7.466667,41.365333 L5.168,38.685333 C4.96,38.48 4.626667,38.48 4.418667,38.685333 C4.210667,38.893333 4.210667,39.229333 4.418667,39.434667 L7.6,43.144267 L7.610667,43.160267 L7.618667,43.178667 L7.6376,43.186667 C7.733333,43.277333 7.858933,43.333333 8,43.333333 C8.138667,43.333333 8.264,43.277333 8.36,43.186667 L8.378667,43.178667 L8.389333,43.160267 L8.4,43.144267 L11.578667,39.434667 C11.786667,39.229333 11.786667,38.893333 11.578667,38.685333 C11.373333,38.48 11.0376,38.48 10.829333,38.685333 L10.829333,38.685333 L10.829333,38.685333 Z M8,44.933333 C4.170933,44.933333 1.066667,41.829333 1.066667,38 C1.066667,34.170933 4.170933,31.066667 8,31.066667 C11.829333,31.066667 14.933333,34.170933 14.933333,38 C14.933333,41.829333 11.829333,44.933333 8,44.933333 L8,44.933333 L8,44.933333 Z M8,30 C3.5816,30 0,33.5816 0,38 C0,42.418667 3.5816,46 8,46 C12.418667,46 16,42.418667 16,38 C16,33.5816 12.418667,30 8,30 L8,30 L8,30 Z" id="Fill-286" fill="#FFFFFF"></path>
                    <path d="M10.8293333,8.68533333 L8.5333333,11.3653333 L8.5333333,2.66666667 C8.5333333,2.37093333 8.2936,2.13333333 8,2.13333333 C7.704,2.13333333 7.4666667,2.37093333 7.4666667,2.66666667 L7.4666667,11.3653333 L5.168,8.68533333 C4.96,8.48 4.6266667,8.48 4.4186667,8.68533333 C4.2106667,8.89333333 4.2106667,9.22933333 4.4186667,9.43466667 L7.6,13.1442667 L7.6106667,13.1602667 L7.6186667,13.1786667 L7.6376,13.1866667 C7.7333333,13.2773333 7.8589333,13.3333333 8,13.3333333 C8.1386667,13.3333333 8.264,13.2773333 8.36,13.1866667 L8.3786667,13.1786667 L8.3893333,13.1602667 L8.4,13.1442667 L11.5786667,9.43466667 C11.7866667,9.22933333 11.7866667,8.89333333 11.5786667,8.68533333 C11.3733333,8.48 11.0376,8.48 10.8293333,8.68533333 L10.8293333,8.68533333 L10.8293333,8.68533333 Z M8,14.9333333 C4.1709333,14.9333333 1.0666667,11.8293333 1.0666667,8 C1.0666667,4.17093333 4.1709333,1.06666667 8,1.06666667 C11.8293333,1.06666667 14.9333333,4.17093333 14.9333333,8 C14.9333333,11.8293333 11.8293333,14.9333333 8,14.9333333 L8,14.9333333 L8,14.9333333 Z M8,0 C3.5816,0 0,3.5816 0,8 C0,12.4186667 3.5816,16 8,16 C12.4186667,16 16,12.4186667 16,8 C16,3.5816 12.4186667,0 8,0 L8,0 L8,0 Z" id="Fill-286" fill="#4A4A4A"></path>
                </g>
            </g>
        </g>
    </g>
</svg>