<?xml version="1.0" encoding="UTF-8" standalone="no"?>
<svg width="77px" height="27px" viewBox="0 0 77 27" version="1.1" xmlns="http://www.w3.org/2000/svg" xmlns:xlink="http://www.w3.org/1999/xlink" xmlns:sketch="http://www.bohemiancoding.com/sketch/ns">
    <!-- Generator: Sketch 3.3 (11970) - http://www.bohemiancoding.com/sketch -->
    <title>Github Logotype + Imported Layers 3 + Imported Layers 2</title>
    <desc>Created with Sketch.</desc>
    <defs></defs>
    <g id="Page-1" stroke="none" stroke-width="1" fill="none" fill-rule="evenodd" sketch:type="MSPage">
        <g id="Desktop---1---Home" sketch:type="MSArtboardGroup" transform="translate(-1214.000000, -77.000000)" fill="#FFFFFF">
            <g id="Github-Logotype-+-Star-+-Rectangle-6-+-Rectangle-6-+-15000" sketch:type="MSLayerGroup" transform="translate(1214.000000, 77.000000)">
                <g id="Github-Logotype-+-Imported-Layers-3-+-Imported-Layers-2" sketch:type="MSShapeGroup">
                    <path d="M51,13.3089694 C51,18.8253505 54.6385954,23.5061486 59.6852265,25.1573833 C60.3206359,25.2723718 60.5521899,24.8867771 60.5521899,24.5556102 C60.5521899,24.2589399 60.5412749,23.4739518 60.5350378,22.4321561 C57.0024739,23.1864806 56.2571349,20.7579237 56.2571349,20.7579237 C55.6794192,19.3152015 54.8467601,18.9311399 54.8467601,18.9311399 C53.6936677,18.1561175 54.9340802,18.1722159 54.9340802,18.1722159 C56.208797,18.2603737 56.8792903,19.4593204 56.8792903,19.4593204 C58.0128916,21.3673627 59.8520702,20.8161846 60.5755792,20.4965166 C60.6909664,19.6892974 61.0191963,19.1396524 61.3817304,18.8268837 C58.5617605,18.5118152 55.596777,17.4408891 55.596777,12.6558348 C55.596777,11.2920713 56.0918505,10.1774495 56.9042388,9.30430362 C56.7740384,8.98846857 56.3382178,7.71899565 57.0289818,6.00030103 C57.0289818,6.00030103 58.0955338,5.66376805 60.5210042,7.27973962 C61.5345405,7.00300066 62.6205836,6.86424788 63.7003896,6.85964834 C64.779416,6.86424788 65.8654591,7.00300066 66.8805547,7.27973962 C69.3044658,5.66376805 70.3694586,6.00030103 70.3694586,6.00030103 C71.0617818,7.71899565 70.6259612,8.98846857 70.4957608,9.30430362 C71.3097084,10.1774495 71.8008837,11.2920713 71.8008837,12.6558348 C71.8008837,17.452388 68.8320019,18.5079823 66.0026763,18.8176846 C66.4587677,19.2032794 66.8641822,19.9652697 66.8641822,21.1297198 C66.8641822,22.7993527 66.849369,24.1462512 66.849369,24.5556102 C66.849369,24.8898434 67.0778045,25.2777379 67.7225695,25.1558502 C72.7645228,23.5015491 76.3999996,18.8245839 76.3999996,13.3089694 C76.3999996,6.41195982 70.7132813,0.821219479 63.6988303,0.821219479 C56.6867184,0.821219479 51,6.41195982 51,13.3089694 Z" id="Github-Logotype"></path>
                    <path d="M37.9690716,1 C31.0272779,1 25.3999996,6.62727827 25.3999996,13.569072 C25.3999996,20.5108657 31.0272779,26.138144 37.9690716,26.138144 C44.9108653,26.138144 50.5381436,20.5108657 50.5381436,13.569072 C50.5381436,6.62727827 44.9108653,1 37.9690716,1 L37.9690716,1 Z M40.9461087,9.68575245 L39.0562963,9.68575245 C38.8329334,9.68575245 38.5839087,9.97929265 38.5839087,10.372338 L38.5839087,11.7371297 L40.9461087,11.7371297 L40.9461087,13.6819318 L38.5839087,13.6819318 L38.5839087,19.5228843 L36.3528984,19.5228843 L36.3528984,13.6819318 L34.3305871,13.6819318 L34.3305871,11.7371297 L36.3528984,11.7371297 L36.3528984,10.5920349 C36.3528984,8.95072359 37.4924943,7.61525969 39.0562963,7.61525969 L40.9461087,7.61525969 L40.9461087,9.68575245 L40.9461087,9.68575245 Z" id="Imported-Layers-3"></path>
                    <path d="M12.569072,1 C5.62675455,1 0,6.62727827 0,13.569072 C0,20.5108657 5.62675455,26.138144 12.569072,26.138144 C19.5106038,26.138144 25.138144,20.5108657 25.138144,13.569072 C25.138144,6.62727827 19.5106038,1 12.569072,1 L12.569072,1 Z M17.6807564,11.2966885 C17.6859935,11.4030019 17.6880884,11.509839 17.6880884,11.6171998 C17.6880884,14.8885627 15.197841,18.6608554 10.6444328,18.6608554 C9.24664728,18.6608554 7.94548648,18.2505276 6.85014423,17.5482307 C7.04339371,17.5715358 7.24030917,17.5830575 7.4403669,17.5830575 C8.6003875,17.5830575 9.6677112,17.1873936 10.5150761,16.5230657 C9.43177924,16.5034266 8.51737925,15.7875132 8.20236689,14.8039833 C8.35371946,14.8327874 8.50873802,14.8484988 8.66820812,14.8484988 C8.8939277,14.8484988 9.11283904,14.8181235 9.32022873,14.7615627 C8.18796483,14.5340101 7.33457721,13.5337215 7.33457721,12.3341607 C7.33457721,12.3236864 7.33457721,12.3134741 7.33483907,12.3032617 C7.66844318,12.4886555 8.0504906,12.5996823 8.45610503,12.6127751 C7.7917772,12.1686679 7.35500195,11.4111194 7.35500195,10.551971 C7.35500195,10.098437 7.47650298,9.67344523 7.68991535,9.30763286 C8.91068646,10.8054473 10.7350349,11.791072 12.7924349,11.8942431 C12.7500142,11.713039 12.7285421,11.5239792 12.7285421,11.3299442 C12.7285421,9.96279574 13.8369771,8.85462256 15.2038637,8.85462256 C15.9158492,8.85462256 16.5592286,9.15523287 17.0109296,9.63626173 C17.5749667,9.52523492 18.1047008,9.31941637 18.5831111,9.03556483 C18.3979791,9.61348028 18.0054575,10.0989607 17.4945771,10.4053318 C17.9952451,10.3453669 18.472608,10.2123442 18.9164533,10.0154287 C18.5844203,10.5116452 18.1646657,10.9478968 17.6807564,11.2966885 L17.6807564,11.2966885 Z" id="Imported-Layers-2"></path>
                </g>
            </g>
        </g>
    </g>
</svg>