<?xml version="1.0" encoding="UTF-8" standalone="no"?>
<svg width="59px" height="74px" viewBox="0 0 59 74" version="1.1" xmlns="http://www.w3.org/2000/svg" xmlns:xlink="http://www.w3.org/1999/xlink" xmlns:sketch="http://www.bohemiancoding.com/sketch/ns">
    <!-- Generator: Sketch 3.3.1 (12005) - http://www.bohemiancoding.com/sketch -->
    <title>Imported Layers</title>
    <desc>Created with Sketch.</desc>
    <defs></defs>
    <g id="Page-1" stroke="none" stroke-width="1" fill="none" fill-rule="evenodd" sketch:type="MSPage">
        <g id="Desktop---1---Home" sketch:type="MSArtboardGroup" transform="translate(-130.000000, -68.000000)">
            <g id="Isotype-+-by-Jared-Hanson-+-Passport.js-+-Imported-Layers" sketch:type="MSLayerGroup" transform="translate(89.500000, 68.000000)">
                <g id="Imported-Layers" transform="translate(40.603774, 0.000000)" sketch:type="MSShapeGroup">
                    <path d="M29.4225401,58.8624331 C29.4289102,63.4736807 29.4216615,68.0849282 29.4565869,72.6959561 C29.461639,73.3659082 29.2911856,73.5539341 28.6060772,73.5519572 C19.4198254,73.5280146 10.2335736,73.5310898 1.04732188,73.5469051 C0.43557871,73.5480034 0.135088707,73.4801295 0.136626302,72.7376908 C0.166499578,58.3545874 0.168696142,43.9717037 0.176384117,29.5890397 C5.03716136,29.590138 9.89771895,29.590797 14.7584962,29.5918952 C14.7666235,38.9947282 14.7859533,48.3973416 14.7642073,57.7997353 C14.7622304,58.6383836 14.9419093,58.8997747 15.8286623,58.8912081 C20.3647874,58.8466179 24.9015714,58.8786877 29.4383554,58.8839594 L29.4225401,58.8624331" id="Fill-1" fill="#FDFDFD"></path>
                    <path d="M29.4141932,0.256778372 C36.5921262,0.255460434 42.9265784,2.60183047 48.3955843,7.21571388 C53.8160462,11.7885215 57.1003492,17.6428048 58.3552464,24.6002028 C58.7284427,26.6700253 58.9959842,28.7866348 58.700107,30.9137877 C58.5885215,30.3534441 58.9491974,29.5881611 57.7995156,29.6028781 C53.5034751,29.6582315 49.2058969,29.6364855 44.9091974,29.6107857 C44.360276,29.6074908 44.1127232,29.8141876 44.0035539,30.297871 C44.0536356,27.6033455 43.594993,25.0219431 42.2590425,22.6467981 C39.4465615,17.6463193 35.0450859,15.2694171 29.4304478,14.9089609 C29.4249564,10.0249 29.4196846,5.1408392 29.4141932,0.256778372" id="Fill-2" fill="#35DF79"></path>
                    <path d="M29.4141932,0.256778372 C29.4196846,5.1408392 29.4249564,10.0249 29.4304478,14.9089609 C29.2852549,14.9243368 29.1402816,14.9430076 28.9946494,14.9544297 C22.8018755,15.4394311 18.384365,18.4575106 15.8660039,24.1716531 C15.1062123,25.8952971 14.9799099,27.7546888 14.7584962,29.5916756 C9.89771895,29.590797 5.03716136,29.590138 0.176384117,29.5890397 C0.0382202197,25.4845396 0.869400169,21.5586201 2.57678964,17.8519178 C7.11313433,8.00274289 14.8197803,2.26465784 25.4878344,0.509383272 C26.770628,0.298293438 28.0916418,0.119053788 29.4141932,0.256778372" id="Fill-3" fill="#D4FD02"></path>
                    <path d="M44.0035539,30.297871 C44.1127232,29.8141876 44.360276,29.6074908 44.9091974,29.6107857 C49.2058969,29.6364855 53.5034751,29.6582315 57.7995156,29.6028781 C58.9491974,29.5881611 58.5885215,30.3534441 58.700107,30.9137877 C58.3014306,43.5714897 49.1347282,55.4643481 35.1799549,58.3673275 C33.2909096,58.7602929 31.3658406,58.9806083 29.4225401,58.8624331 L29.4383554,58.8839594 C29.4368178,54.3825401 29.46735,49.8806815 29.4093607,45.3801408 C29.396401,44.3866348 29.6439538,44.0477049 30.6530555,44.1201915 C31.2889609,44.16588 31.9507857,43.965773 32.5899859,43.8256322 C38.741684,42.4756238 43.6633061,37.1443424 44.0035539,30.297871" id="Fill-4" fill="#01B7EE"></path>
                </g>
            </g>
        </g>
    </g>
</svg>