<?xml version="1.0" encoding="UTF-8" standalone="no"?>
<svg width="49px" height="60px" viewBox="0 0 49 60" version="1.1" xmlns="http://www.w3.org/2000/svg" xmlns:xlink="http://www.w3.org/1999/xlink" xmlns:sketch="http://www.bohemiancoding.com/sketch/ns">
    <!-- Generator: Sketch 3.3 (11970) - http://www.bohemiancoding.com/sketch -->
    <title>Imported Layers</title>
    <desc>Created with Sketch.</desc>
    <defs></defs>
    <g id="Page-1" stroke="none" stroke-width="1" fill="none" fill-rule="evenodd" sketch:type="MSPage">
        <g id="Desktop---1---Home" sketch:type="MSArtboardGroup" transform="translate(-190.000000, -59.000000)" fill="#34E078">
            <path d="M214.28219,118.686681 L190.002205,118.686681 L190.002205,117.405645 C190.002205,105.977677 189.996383,94.5499481 190.00366,83.122219 C190.012393,69.207717 201.401012,58.4617409 215.534601,59.0208644 C229.282739,59.5646891 240.034358,72.234729 238.388734,85.6307449 C237.014551,96.8179959 227.428259,106.731143 214.245319,106.835366 L214.245319,94.9018206 C214.677586,94.8695497 214.956789,94.8537728 215.234779,94.8272389 C222.79218,94.107478 227.88721,87.0700278 225.996586,79.9644501 C224.455026,74.1705058 218.771269,70.2764819 212.947304,71.023972 C206.647893,71.8324182 202.152992,76.7983146 202.142076,82.9974381 C202.128977,90.5266015 202.138195,98.0557648 202.141348,105.584928 C202.141591,105.968593 202.176522,106.352498 202.198596,106.799271 L214.28219,106.799271 L214.28219,118.686681 Z" id="Imported-Layers" sketch:type="MSShapeGroup"></path>
        </g>
    </g>
</svg>