<?xml version="1.0" encoding="UTF-8" standalone="no"?>
<svg width="232px" height="58px" viewBox="0 0 232 58" version="1.1" xmlns="http://www.w3.org/2000/svg" xmlns:xlink="http://www.w3.org/1999/xlink" xmlns:sketch="http://www.bohemiancoding.com/sketch/ns">
    <!-- Generator: Sketch 3.3.1 (12002) - http://www.bohemiancoding.com/sketch -->
    <title>Passport</title>
    <desc>Created with Sketch.</desc>
    <defs></defs>
    <g id="Page-1" stroke="none" stroke-width="1" fill="none" fill-rule="evenodd" sketch:type="MSPage">
        <path d="M12.87,25.96 C24.07,25.19 31.42,21.48 31.42,12.87 C31.42,3.07 20.71,1.25 12.87,0.9 L12.87,1.67 C19.1,2.44 22.74,4.61 22.74,13.01 C22.74,20.92 20.15,24.28 12.87,25.19 L12.87,25.96 Z M0.48,45 L9.02,45 L9.02,0.9 L0.48,0.9 L0.48,45 Z M40.45,45.56 C44.93,45.56 47.1,42.9 48.22,41.22 L48.22,40.66 C47.17,41.43 45.98,42.48 43.67,42.48 C40.66,42.48 39.68,40.17 39.68,36.88 C39.68,33.59 40.8,32.33 41.85,31.49 C43.25,30.65 45.77,29.81 48.01,29.04 L48.01,28.41 C44.3,29.18 39.75,30.37 38.07,30.93 C35.41,32.05 32.47,33.52 32.47,38.21 C32.47,42.13 35.06,45.56 40.45,45.56 L40.45,45.56 Z M49.76,45 L57.18,45 L57.18,22.46 C57.18,16.58 53.26,14.34 47.38,14.34 C43.6,14.34 39.54,15.74 37.93,17 L37.93,17.56 C39.12,17.07 40.87,16.86 42.62,16.86 C47.45,16.86 49.76,18.54 49.76,23.65 L49.76,45 Z M37.3,24.98 C39.19,24.98 40.31,23.72 40.31,22.04 C40.31,20.36 39.19,19.03 37.3,19.03 C35.41,19.03 34.29,20.36 34.29,22.04 C34.29,23.72 35.41,24.98 37.3,24.98 L37.3,24.98 Z M73.07,45.56 C79.51,45.21 84.06,41.36 84.06,35.41 C84.06,31.28 81.82,28.76 77.69,26.87 L72.16,24.35 C69.64,23.23 68.31,21.9 68.31,19.31 C68.31,16.58 70.55,15.25 72.86,14.9 L72.86,14.34 C67.05,14.69 62.78,18.68 62.78,23.37 C62.78,28.06 66.07,30.3 69.29,31.84 L73.77,33.87 C76.78,35.2 78.53,36.46 78.53,39.33 C78.53,42.76 75.66,44.58 73.07,44.93 L73.07,45.56 Z M70.9,44.93 C68.31,44.02 65.65,41.78 62.92,38.98 L62.92,44.37 C65.09,45 68.31,45.35 70.9,45.56 L70.9,44.93 Z M82.03,15.39 C80.14,14.83 77.48,14.41 74.68,14.34 L74.68,14.9 C77.55,15.95 79.86,17.63 82.03,20.15 L82.03,15.39 Z M98.41,45.56 C104.85,45.21 109.4,41.36 109.4,35.41 C109.4,31.28 107.16,28.76 103.03,26.87 L97.5,24.35 C94.98,23.23 93.65,21.9 93.65,19.31 C93.65,16.58 95.89,15.25 98.2,14.9 L98.2,14.34 C92.39,14.69 88.12,18.68 88.12,23.37 C88.12,28.06 91.41,30.3 94.63,31.84 L99.11,33.87 C102.12,35.2 103.87,36.46 103.87,39.33 C103.87,42.76 101,44.58 98.41,44.93 L98.41,45.56 Z M96.24,44.93 C93.65,44.02 90.99,41.78 88.26,38.98 L88.26,44.37 C90.43,45 93.65,45.35 96.24,45.56 L96.24,44.93 Z M107.37,15.39 C105.48,14.83 102.82,14.41 100.02,14.34 L100.02,14.9 C102.89,15.95 105.2,17.63 107.37,20.15 L107.37,15.39 Z M114.79,57.46 L122.28,57.46 L122.28,44.79 C123.89,45.28 125.71,45.49 127.39,45.56 L127.39,44.93 C125.92,44.72 123.61,43.74 122.28,42.9 L122.28,14.2 L114.79,15.11 L114.79,57.46 Z M129.35,45.56 C140.2,45 146.08,38.84 146.08,28.97 C146.08,19.66 142.02,14.34 133.9,14.34 C129.63,14.34 125.78,16.58 123.89,19.03 L123.89,19.66 C125.5,18.54 127.53,17.56 130.12,17.56 C135.79,17.56 138.24,21.2 138.24,30.16 C138.24,39.75 134.46,44.37 129.35,44.93 L129.35,45.56 Z M164.56,44.93 C163.37,44.72 162.32,44.16 161.55,43.53 C158.47,41.01 157.56,36.39 157.56,29.95 C157.56,23.44 158.47,18.82 161.55,16.37 C162.32,15.67 163.3,15.18 164.56,14.9 L164.56,14.34 C156.09,15.11 149.72,21.55 149.72,29.95 C149.72,38.28 156.09,44.79 164.56,45.56 L164.56,44.93 Z M167.15,45.56 C175.55,44.79 182.06,38.28 182.06,29.95 C182.06,21.55 175.55,15.11 167.15,14.34 L167.15,14.9 C168.34,15.18 169.39,15.67 170.23,16.37 C173.31,18.82 174.22,23.44 174.22,29.95 C174.22,36.39 173.31,41.01 170.23,43.53 C169.39,44.16 168.34,44.72 167.15,44.93 L167.15,45.56 Z M196.48,22.95 C198.37,21.06 200.96,20.29 203.48,20.29 C204.95,20.29 206,20.43 206.77,20.78 L206.77,14.62 C206.28,14.41 205.58,14.34 204.67,14.34 C200.12,14.34 197.25,18.26 196.48,22.25 L196.48,22.95 Z M187.31,45 L194.8,45 L194.8,14.27 L187.31,15.11 L187.31,45 Z M221.96,45.56 C226.72,45.56 230.08,43.39 231.27,41.5 L231.27,40.73 C230.43,41.29 228.12,41.85 226.16,41.85 C222.03,41.85 221.12,39.12 221.12,35.48 L221.12,17.35 L230.29,17.35 L230.29,14.9 L221.12,14.9 L221.12,4.61 L213.7,7.2 L213.7,14.9 L209.22,14.9 L209.22,17.35 L213.7,17.35 L213.7,36.32 C213.7,42.48 216.43,45.56 221.96,45.56 L221.96,45.56 Z" id="Passport" fill="#35DF79" sketch:type="MSShapeGroup"></path>
    </g>
</svg>