<?xml version="1.0" encoding="UTF-8" standalone="no"?>
<svg width="1505px" height="806px" viewBox="0 0 1505 806" version="1.1" xmlns="http://www.w3.org/2000/svg" xmlns:xlink="http://www.w3.org/1999/xlink" xmlns:sketch="http://www.bohemiancoding.com/sketch/ns">
    <!-- Generator: Sketch 3.3.1 (12002) - http://www.bohemiancoding.com/sketch -->
    <title>Rectangle 1 + passport + Simple, unobtrusive </title>
    <desc>Created with Sketch.</desc>
    <defs>
        <rect id="path-1" x="0" y="0" width="1504.53333" height="806"></rect>
        <rect id="path-3" x="0" y="0" width="1000" height="280" rx="9"></rect>
        <rect id="path-5" x="1.13686838e-13" y="0" width="1525" height="384" rx="3"></rect>
    </defs>
    <g id="Page-1" stroke="none" stroke-width="1" fill="none" fill-rule="evenodd" sketch:type="MSPage">
        <g id="Rectangle-1-+-passport-+-Simple,-unobtrusive-" sketch:type="MSLayerGroup">
            <mask id="mask-2" sketch:name="Mask" fill="white">
                <use xlink:href="#path-1"></use>
            </mask>
            <use id="Mask" fill="#000000" sketch:type="MSShapeGroup" xlink:href="#path-1"></use>
            <g id="passport-+-Simple,-unobtrusive-" mask="url(#mask-2)">
                <g transform="translate(105.266667, 68.500000)">
                    <g id="passport" stroke-width="1" fill="none" sketch:type="MSLayerGroup" transform="translate(583.000000, 0.000000)">
                        <g id="Page-1" sketch:type="MSShapeGroup">
                            <g id="passport_final">
                                <g id="Group">
                                    <g id="Shape">
                                        <path d="M64,95.9520958 L64,127.904192 C99.1044776,127.904192 127.665672,99.257485 127.665672,64.0479042 C127.665672,28.8383234 99.1044776,0.143712575 64,0.143712575 C28.8955224,0.143712575 0.334328358,28.7904192 0.334328358,64 L0.334328358,159.808383 L19.6298507,159.808383 L64,159.808383 L64,127.904192 L32.1432836,127.904192 L32.1432836,64.0479042 C32.1432836,46.4191617 46.3761194,32.0958084 64,32.0958084 C81.6238806,32.0958084 95.8567164,46.3712575 95.8567164,64.0479042 C95.8567164,81.6766467 81.5761194,95.9520958 64,95.9520958 L64,95.9520958 L64,95.9520958 Z" fill="#FFFFFF"></path>
                                        <path d="M95.8567164,64.0479042 L127.665672,64.0479042 C127.665672,28.8383234 99.1044776,0.191616766 64,0.191616766 L64,32.0958084 C81.5761194,32.0958084 95.8567164,46.3712575 95.8567164,64.0479042 L95.8567164,64.0479042 L95.8567164,64.0479042 Z" fill="#34E27A"></path>
                                        <path d="M64,96 L64,127.904192 C99.1044776,127.904192 127.665672,99.257485 127.665672,64.0479042 L95.8567164,64.0479042 C95.8567164,81.6766467 81.5761194,96 64,96 L64,96 L64,96 Z" fill="#00B9F1"></path>
                                        <path d="M32.1432836,64.0479042 C32.1432836,46.4191617 46.4238806,32.0958084 64,32.0958084 L64,0.191616766 C28.8955224,0.191616766 0.334328358,28.8383234 0.334328358,64.0479042 L32.1432836,64.0479042 L32.1432836,64.0479042 Z" fill="#D6FF00"></path>
                                    </g>
                                </g>
                            </g>
                        </g>
                    </g>
                    <path d="M24.117,254.47 C23.2489957,253.06466 22.0916739,252.04167 20.645,251.401 C19.1983261,250.76033 17.6896745,250.44 16.119,250.44 C14.9616609,250.44 13.8250056,250.584665 12.709,250.874 C11.5929944,251.163335 10.5906711,251.59733 9.702,252.176 C8.81332889,252.75467 8.10033602,253.519329 7.563,254.47 C7.02566398,255.420671 6.757,256.53666 6.757,257.818 C6.757,258.810005 6.91199845,259.68833 7.222,260.453 C7.53200155,261.21767 8.03832982,261.909997 8.741,262.53 C9.44367018,263.150003 10.3943273,263.728664 11.593,264.266 C12.7916727,264.803336 14.2589913,265.340664 15.995,265.878 C17.6896751,266.415336 19.3326587,266.993997 20.924,267.614 C22.5153413,268.234003 23.9206606,269.019329 25.14,269.97 C26.3593394,270.920671 27.330663,272.108993 28.054,273.535 C28.7773369,274.961007 29.139,276.748656 29.139,278.898 C29.139,281.088678 28.7050043,282.989992 27.837,284.602 C26.9689957,286.214008 25.8220071,287.546995 24.396,288.601 C22.9699929,289.655005 21.3270093,290.440331 19.467,290.957 C17.6069907,291.473669 15.6850099,291.732 13.701,291.732 C12.4196603,291.732 11.1383397,291.618334 9.857,291.391 C8.57566026,291.163666 7.34600589,290.812336 6.168,290.337 C4.98999411,289.861664 3.8843385,289.24167 2.851,288.477 C1.8176615,287.71233 0.92900372,286.772006 0.185,285.656 L4.649,281.998 C5.59967142,283.610008 6.92232486,284.829329 8.617,285.656 C10.3116751,286.482671 12.1096572,286.896 14.011,286.896 C15.1270056,286.896 16.2533276,286.730668 17.39,286.4 C18.5266723,286.069332 19.5496621,285.58367 20.459,284.943 C21.3683379,284.30233 22.1123304,283.506671 22.691,282.556 C23.2696696,281.605329 23.559,280.510006 23.559,279.27 C23.559,277.905993 23.3316689,276.800338 22.877,275.953 C22.4223311,275.105662 21.7196714,274.372003 20.769,273.752 C19.8183286,273.131997 18.6196739,272.574002 17.173,272.078 C15.7263261,271.581998 14.0316764,271.003337 12.089,270.342 C10.5183255,269.845998 9.07167328,269.27767 7.749,268.637 C6.42632672,267.99633 5.27933819,267.211005 4.308,266.281 C3.33666181,265.350995 2.57200279,264.235007 2.014,262.933 C1.45599721,261.630993 1.177,260.070676 1.177,258.252 C1.177,256.143989 1.5903292,254.304675 2.417,252.734 C3.2436708,251.163325 4.35965964,249.851005 5.765,248.797 C7.17034036,247.742995 8.76165778,246.947336 10.539,246.41 C12.3163422,245.872664 14.1763236,245.604 16.119,245.604 C18.5990124,245.604 20.8619898,245.98633 22.908,246.751 C24.9540102,247.51567 26.7829919,248.848657 28.395,250.75 L24.117,254.47 Z M37.323,261.6 L42.159,261.6 L42.159,290.616 L37.323,290.616 L37.323,261.6 Z M36.207,250.254 C36.207,249.303329 36.5479966,248.47667 37.23,247.774 C37.9120034,247.07133 38.748995,246.72 39.741,246.72 C40.733005,246.72 41.5699966,247.07133 42.252,247.774 C42.9340034,248.47667 43.275,249.303329 43.275,250.254 C43.275,251.287338 42.9443366,252.134663 42.283,252.796 C41.6216634,253.457337 40.7743385,253.788 39.741,253.788 C38.7076615,253.788 37.8603366,253.457337 37.199,252.796 C36.5376634,252.134663 36.207,251.287338 36.207,250.254 L36.207,250.254 Z M51.769,268.482 C51.769,267.159327 51.7276671,265.919339 51.645,264.762 C51.5623329,263.604661 51.521,262.550671 51.521,261.6 L56.109,261.6 C56.109,262.385337 56.1296665,263.170663 56.171,263.956 C56.2123335,264.741337 56.233,265.547329 56.233,266.374 L56.357,266.374 C56.6876683,265.67133 57.1526637,264.989337 57.752,264.328 C58.3513363,263.666663 59.0643292,263.077669 59.891,262.561 C60.7176708,262.044331 61.6476615,261.631002 62.681,261.321 C63.7143385,261.010998 64.8303273,260.856 66.029,260.856 C67.5996745,260.856 68.9119947,261.052331 69.966,261.445 C71.0200053,261.837669 71.8983298,262.312997 72.601,262.871 C73.3036702,263.429003 73.8513314,264.02833 74.244,264.669 C74.6366686,265.30967 74.9569988,265.877998 75.205,266.374 C76.279672,264.637991 77.5196596,263.284338 78.925,262.313 C80.3303404,261.341662 82.1489888,260.856 84.381,260.856 C86.447677,260.856 88.1836596,261.134997 89.589,261.693 C90.9943404,262.251003 92.1309957,263.056995 92.999,264.111 C93.8670043,265.165005 94.4869981,266.446326 94.859,267.955 C95.2310019,269.463674 95.417,271.147991 95.417,273.008 L95.417,290.616 L90.581,290.616 L90.581,273.256 C90.581,272.263995 90.4776677,271.292671 90.271,270.342 C90.0643323,269.391329 89.692336,268.544004 89.155,267.8 C88.617664,267.055996 87.8943379,266.456669 86.985,266.002 C86.0756621,265.547331 84.9183404,265.32 83.513,265.32 C82.4796615,265.32 81.5083379,265.526665 80.599,265.94 C79.6896621,266.353335 78.8940034,266.931996 78.212,267.676 C77.5299966,268.420004 76.9926686,269.318995 76.6,270.373 C76.2073314,271.427005 76.011,272.59466 76.011,273.876 L76.011,290.616 L71.175,290.616 L71.175,274.186 C71.175,270.961984 70.7410043,268.67834 69.873,267.335 C69.0049957,265.99166 67.5790099,265.32 65.595,265.32 C64.0243255,265.32 62.6706723,265.588664 61.534,266.126 C60.3973276,266.663336 59.4673369,267.427995 58.744,268.42 C58.020663,269.412005 57.4833351,270.589993 57.132,271.954 C56.7806649,273.318007 56.605,274.826658 56.605,276.48 L56.605,290.616 L51.769,290.616 L51.769,268.482 Z M104.345,261.6 L109.181,261.6 L109.181,265.816 L109.305,265.816 C110.627673,264.245325 112.167325,263.026004 113.924,262.158 C115.680675,261.289996 117.612989,260.856 119.721,260.856 C121.994345,260.856 124.071324,261.23833 125.952,262.003 C127.832676,262.76767 129.434327,263.831993 130.757,265.196 C132.079673,266.560007 133.112996,268.171991 133.857,270.032 C134.601004,271.892009 134.973,273.917322 134.973,276.108 C134.973,278.298678 134.601004,280.323991 133.857,282.184 C133.112996,284.044009 132.090007,285.655993 130.788,287.02 C129.485993,288.384007 127.946342,289.44833 126.169,290.213 C124.391658,290.97767 122.490343,291.36 120.465,291.36 C117.860987,291.36 115.577343,290.791672 113.614,289.655 C111.650657,288.518328 110.214338,287.123342 109.305,285.47 L109.181,285.47 L109.181,304.752 L104.345,304.752 L104.345,261.6 Z M109.181,276.108 C109.181,277.637341 109.418664,279.052993 109.894,280.355 C110.369336,281.657007 111.061662,282.793662 111.971,283.765 C112.880338,284.736338 113.965327,285.500997 115.226,286.059 C116.486673,286.617003 117.902325,286.896 119.473,286.896 C121.043675,286.896 122.459327,286.617003 123.72,286.059 C124.980673,285.500997 126.065662,284.736338 126.975,283.765 C127.884338,282.793662 128.576664,281.657007 129.052,280.355 C129.527336,279.052993 129.765,277.637341 129.765,276.108 C129.765,274.578659 129.527336,273.163007 129.052,271.861 C128.576664,270.558993 127.884338,269.422338 126.975,268.451 C126.065662,267.479662 124.980673,266.715003 123.72,266.157 C122.459327,265.598997 121.043675,265.32 119.473,265.32 C117.902325,265.32 116.486673,265.598997 115.226,266.157 C113.965327,266.715003 112.880338,267.479662 111.971,268.451 C111.061662,269.422338 110.369336,270.558993 109.894,271.861 C109.418664,273.163007 109.181,274.578659 109.181,276.108 L109.181,276.108 Z M142.909,243.744 L147.745,243.744 L147.745,290.616 L142.909,290.616 L142.909,243.744 Z M183.271,285.346 C181.534991,287.578011 179.633677,289.138329 177.567,290.027 C175.500323,290.915671 173.103014,291.36 170.375,291.36 C168.101655,291.36 166.055676,290.957004 164.237,290.151 C162.418324,289.344996 160.878673,288.260007 159.618,286.896 C158.357327,285.531993 157.386003,283.920009 156.704,282.06 C156.021997,280.199991 155.681,278.216011 155.681,276.108 C155.681,273.875989 156.052996,271.819676 156.797,269.939 C157.541004,268.058324 158.574327,266.44634 159.897,265.103 C161.219673,263.75966 162.790324,262.716004 164.609,261.972 C166.427676,261.227996 168.411656,260.856 170.561,260.856 C172.586343,260.856 174.446325,261.196997 176.141,261.879 C177.835675,262.561003 179.292661,263.552993 180.512,264.855 C181.731339,266.157007 182.671663,267.748324 183.333,269.629 C183.994337,271.509676 184.325,273.648655 184.325,276.046 L184.325,277.596 L160.889,277.596 C160.971667,278.836006 161.271331,280.024328 161.788,281.161 C162.304669,282.297672 162.976329,283.289662 163.803,284.137 C164.629671,284.984338 165.600994,285.655998 166.717,286.152 C167.833006,286.648002 169.052327,286.896 170.375,286.896 C172.483011,286.896 174.260326,286.524004 175.707,285.78 C177.153674,285.035996 178.455661,283.940674 179.613,282.494 L183.271,285.346 Z M179.117,273.504 C179.034333,271.023988 178.228341,269.040007 176.699,267.552 C175.169659,266.063993 173.06168,265.32 170.375,265.32 C167.68832,265.32 165.518342,266.063993 163.865,267.552 C162.211658,269.040007 161.219668,271.023988 160.889,273.504 L179.117,273.504 Z M195.237,299.172 L190.463,299.172 L194.679,284.292 L200.321,284.292 L195.237,299.172 Z M251.595,283.734 C251.595,285.056673 251.636333,286.296661 251.719,287.454 C251.801667,288.611339 251.843,289.665329 251.843,290.616 L247.255,290.616 C247.255,289.830663 247.234334,289.045337 247.193,288.26 C247.151666,287.474663 247.131,286.668671 247.131,285.842 L247.007,285.842 C246.676332,286.54467 246.211336,287.226663 245.612,287.888 C245.012664,288.549337 244.299671,289.138331 243.473,289.655 C242.646329,290.171669 241.716338,290.584998 240.683,290.895 C239.649661,291.205002 238.533673,291.36 237.335,291.36 C235.433657,291.36 233.790674,291.07067 232.406,290.492 C231.021326,289.91333 229.874338,289.107338 228.965,288.074 C228.055662,287.040661 227.384002,285.790341 226.95,284.323 C226.515998,282.855659 226.299,281.254009 226.299,279.518 L226.299,261.6 L231.135,261.6 L231.135,279.022 C231.135,281.460679 231.672328,283.38266 232.747,284.788 C233.821672,286.19334 235.495655,286.896 237.769,286.896 C239.339675,286.896 240.693328,286.627336 241.83,286.09 C242.966672,285.552664 243.896663,284.788005 244.62,283.796 C245.343337,282.803995 245.880665,281.626007 246.232,280.262 C246.583335,278.897993 246.759,277.389342 246.759,275.736 L246.759,261.6 L251.595,261.6 L251.595,283.734 Z M260.771,268.482 C260.771,267.159327 260.729667,265.919339 260.647,264.762 C260.564333,263.604661 260.523,262.550671 260.523,261.6 L265.111,261.6 C265.111,262.385337 265.131666,263.170663 265.173,263.956 C265.214334,264.741337 265.235,265.547329 265.235,266.374 L265.359,266.374 C265.689668,265.67133 266.154664,264.989337 266.754,264.328 C267.353336,263.666663 268.066329,263.077669 268.893,262.561 C269.719671,262.044331 270.649661,261.631002 271.683,261.321 C272.716338,261.010998 273.832327,260.856 275.031,260.856 C276.932343,260.856 278.575326,261.14533 279.96,261.724 C281.344674,262.30267 282.491662,263.108661 283.401,264.142 C284.310338,265.175338 284.981998,266.425659 285.416,267.893 C285.850002,269.360341 286.067,270.961991 286.067,272.698 L286.067,290.616 L281.231,290.616 L281.231,273.194 C281.231,270.755321 280.693672,268.83334 279.619,267.428 C278.544328,266.02266 276.870345,265.32 274.597,265.32 C273.026325,265.32 271.672672,265.588664 270.536,266.126 C269.399328,266.663336 268.469337,267.427995 267.746,268.42 C267.022663,269.412005 266.485335,270.589993 266.134,271.954 C265.782665,273.318007 265.607,274.826658 265.607,276.48 L265.607,290.616 L260.771,290.616 L260.771,268.482 Z M293.569,276.108 C293.569,273.834655 293.961663,271.768009 294.747,269.908 C295.532337,268.047991 296.606993,266.44634 297.971,265.103 C299.335007,263.75966 300.967657,262.716004 302.869,261.972 C304.770343,261.227996 306.836989,260.856 309.069,260.856 C311.301011,260.856 313.367657,261.227996 315.269,261.972 C317.170343,262.716004 318.802993,263.75966 320.167,265.103 C321.531007,266.44634 322.605663,268.047991 323.391,269.908 C324.176337,271.768009 324.569,273.834655 324.569,276.108 C324.569,278.381345 324.176337,280.447991 323.391,282.308 C322.605663,284.168009 321.531007,285.76966 320.167,287.113 C318.802993,288.45634 317.170343,289.499996 315.269,290.244 C313.367657,290.988004 311.301011,291.36 309.069,291.36 C306.836989,291.36 304.770343,290.988004 302.869,290.244 C300.967657,289.499996 299.335007,288.45634 297.971,287.113 C296.606993,285.76966 295.532337,284.168009 294.747,282.308 C293.961663,280.447991 293.569,278.381345 293.569,276.108 L293.569,276.108 Z M298.777,276.108 C298.777,277.637341 299.014664,279.052993 299.49,280.355 C299.965336,281.657007 300.657662,282.793662 301.567,283.765 C302.476338,284.736338 303.561327,285.500997 304.822,286.059 C306.082673,286.617003 307.498325,286.896 309.069,286.896 C310.639675,286.896 312.055327,286.617003 313.316,286.059 C314.576673,285.500997 315.661662,284.736338 316.571,283.765 C317.480338,282.793662 318.172664,281.657007 318.648,280.355 C319.123336,279.052993 319.361,277.637341 319.361,276.108 C319.361,274.578659 319.123336,273.163007 318.648,271.861 C318.172664,270.558993 317.480338,269.422338 316.571,268.451 C315.661662,267.479662 314.576673,266.715003 313.316,266.157 C312.055327,265.598997 310.639675,265.32 309.069,265.32 C307.498325,265.32 306.082673,265.598997 304.822,266.157 C303.561327,266.715003 302.476338,267.479662 301.567,268.451 C300.657662,269.422338 299.965336,270.558993 299.49,271.861 C299.014664,273.163007 298.777,274.578659 298.777,276.108 L298.777,276.108 Z M331.823,243.744 L336.659,243.744 L336.659,265.816 L336.783,265.816 C338.105673,264.245325 339.645325,263.026004 341.402,262.158 C343.158675,261.289996 345.090989,260.856 347.199,260.856 C349.472345,260.856 351.549324,261.23833 353.43,262.003 C355.310676,262.76767 356.912327,263.831993 358.235,265.196 C359.557673,266.560007 360.590996,268.171991 361.335,270.032 C362.079004,271.892009 362.451,273.917322 362.451,276.108 C362.451,278.298678 362.079004,280.323991 361.335,282.184 C360.590996,284.044009 359.568007,285.655993 358.266,287.02 C356.963993,288.384007 355.424342,289.44833 353.647,290.213 C351.869658,290.97767 349.968343,291.36 347.943,291.36 C345.338987,291.36 343.055343,290.791672 341.092,289.655 C339.128657,288.518328 337.692338,287.123342 336.783,285.47 L336.659,285.47 L336.659,290.616 L331.823,290.616 L331.823,243.744 Z M336.659,276.108 C336.659,277.637341 336.896664,279.052993 337.372,280.355 C337.847336,281.657007 338.539662,282.793662 339.449,283.765 C340.358338,284.736338 341.443327,285.500997 342.704,286.059 C343.964673,286.617003 345.380325,286.896 346.951,286.896 C348.521675,286.896 349.937327,286.617003 351.198,286.059 C352.458673,285.500997 353.543662,284.736338 354.453,283.765 C355.362338,282.793662 356.054664,281.657007 356.53,280.355 C357.005336,279.052993 357.243,277.637341 357.243,276.108 C357.243,274.578659 357.005336,273.163007 356.53,271.861 C356.054664,270.558993 355.362338,269.422338 354.453,268.451 C353.543662,267.479662 352.458673,266.715003 351.198,266.157 C349.937327,265.598997 348.521675,265.32 346.951,265.32 C345.380325,265.32 343.964673,265.598997 342.704,266.157 C341.443327,266.715003 340.358338,267.479662 339.449,268.451 C338.539662,269.422338 337.847336,270.558993 337.372,271.861 C336.896664,273.163007 336.659,274.578659 336.659,276.108 L336.659,276.108 Z M385.825,265.692 L377.269,265.692 L377.269,280.2 C377.269,281.150671 377.289666,282.028996 377.331,282.835 C377.372334,283.641004 377.537665,284.343664 377.827,284.943 C378.116335,285.542336 378.55033,286.017665 379.129,286.369 C379.70767,286.720335 380.534328,286.896 381.609,286.896 C382.31167,286.896 383.034996,286.813334 383.779,286.648 C384.523004,286.482666 385.225663,286.234668 385.887,285.904 L386.073,290.306 C385.246329,290.678002 384.326672,290.946666 383.314,291.112 C382.301328,291.277334 381.340338,291.36 380.431,291.36 C378.694991,291.36 377.310338,291.132669 376.277,290.678 C375.243661,290.223331 374.43767,289.582671 373.859,288.756 C373.28033,287.929329 372.898001,286.906339 372.712,285.687 C372.525999,284.467661 372.433,283.114007 372.433,281.626 L372.433,265.692 L366.109,265.692 L366.109,261.6 L372.433,261.6 L372.433,253.354 L377.269,253.354 L377.269,261.6 L385.825,261.6 L385.825,265.692 Z M391.777,268.482 C391.777,267.159327 391.735667,265.919339 391.653,264.762 C391.570333,263.604661 391.529,262.550671 391.529,261.6 L396.117,261.6 C396.117,262.385337 396.137666,263.170663 396.179,263.956 C396.220334,264.741337 396.241,265.547329 396.241,266.374 L396.365,266.374 C396.695668,265.67133 397.160664,264.989337 397.76,264.328 C398.359336,263.666663 399.072329,263.077669 399.899,262.561 C400.725671,262.044331 401.655661,261.631002 402.689,261.321 C403.722338,261.010998 404.838327,260.856 406.037,260.856 C406.367668,260.856 406.698332,260.876666 407.029,260.918 C407.359668,260.959334 407.690332,261.041999 408.021,261.166 L407.711,266.064 C406.884329,265.815999 406.016338,265.692 405.107,265.692 C402.130985,265.692 399.97134,266.65299 398.628,268.575 C397.28466,270.49701 396.613,273.131983 396.613,276.48 L396.613,290.616 L391.777,290.616 L391.777,268.482 Z M438.897,283.734 C438.897,285.056673 438.938333,286.296661 439.021,287.454 C439.103667,288.611339 439.145,289.665329 439.145,290.616 L434.557,290.616 C434.557,289.830663 434.536334,289.045337 434.495,288.26 C434.453666,287.474663 434.433,286.668671 434.433,285.842 L434.309,285.842 C433.978332,286.54467 433.513336,287.226663 432.914,287.888 C432.314664,288.549337 431.601671,289.138331 430.775,289.655 C429.948329,290.171669 429.018338,290.584998 427.985,290.895 C426.951661,291.205002 425.835673,291.36 424.637,291.36 C422.735657,291.36 421.092674,291.07067 419.708,290.492 C418.323326,289.91333 417.176338,289.107338 416.267,288.074 C415.357662,287.040661 414.686002,285.790341 414.252,284.323 C413.817998,282.855659 413.601,281.254009 413.601,279.518 L413.601,261.6 L418.437,261.6 L418.437,279.022 C418.437,281.460679 418.974328,283.38266 420.049,284.788 C421.123672,286.19334 422.797655,286.896 425.071,286.896 C426.641675,286.896 427.995328,286.627336 429.132,286.09 C430.268672,285.552664 431.198663,284.788005 431.922,283.796 C432.645337,282.803995 433.182665,281.626007 433.534,280.262 C433.885335,278.897993 434.061,277.389342 434.061,275.736 L434.061,261.6 L438.897,261.6 L438.897,283.734 Z M448.693,282.99 C449.643671,284.188673 450.687328,285.13933 451.824,285.842 C452.960672,286.54467 454.396991,286.896 456.133,286.896 C456.877004,286.896 457.63133,286.813334 458.396,286.648 C459.16067,286.482666 459.852997,286.214002 460.473,285.842 C461.093003,285.469998 461.588998,285.005003 461.961,284.447 C462.333002,283.888997 462.519,283.217337 462.519,282.432 C462.519,281.646663 462.343335,281.006002 461.992,280.51 C461.640665,280.013998 461.17567,279.590335 460.597,279.239 C460.01833,278.887665 459.357004,278.608668 458.613,278.402 C457.868996,278.195332 457.104337,278.009334 456.319,277.844 C454.954993,277.554665 453.653006,277.224002 452.413,276.852 C451.172994,276.479998 450.088005,275.994336 449.158,275.395 C448.227995,274.795664 447.484003,274.020671 446.926,273.07 C446.367997,272.119329 446.089,270.900007 446.089,269.412 C446.089,268.00666 446.398997,266.766672 447.019,265.692 C447.639003,264.617328 448.465661,263.72867 449.499,263.026 C450.532338,262.32333 451.68966,261.786002 452.971,261.414 C454.25234,261.041998 455.574993,260.856 456.939,260.856 C459.005677,260.856 460.917325,261.269329 462.674,262.096 C464.430675,262.922671 465.804995,264.265991 466.797,266.126 L462.767,268.792 C462.146997,267.758662 461.330672,266.92167 460.318,266.281 C459.305328,265.64033 458.075674,265.32 456.629,265.32 C455.967663,265.32 455.296003,265.402666 454.614,265.568 C453.931997,265.733334 453.322336,265.981332 452.785,266.312 C452.247664,266.642668 451.803335,267.066331 451.452,267.583 C451.100665,268.099669 450.925,268.688663 450.925,269.35 C450.925,269.970003 451.121331,270.496998 451.514,270.931 C451.906669,271.365002 452.443997,271.747332 453.126,272.078 C453.808003,272.408668 454.593329,272.697999 455.482,272.946 C456.370671,273.194001 457.290329,273.400666 458.241,273.566 C459.52234,273.814001 460.741661,274.134331 461.899,274.527 C463.056339,274.919669 464.068996,275.446663 464.937,276.108 C465.805004,276.769337 466.486998,277.595995 466.983,278.588 C467.479002,279.580005 467.727,280.799326 467.727,282.246 C467.727,283.899342 467.396337,285.304661 466.735,286.462 C466.073663,287.619339 465.195339,288.559663 464.1,289.283 C463.004661,290.006337 461.764674,290.533332 460.38,290.864 C458.995326,291.194668 457.579674,291.36 456.133,291.36 C453.652988,291.36 451.514009,290.97767 449.716,290.213 C447.917991,289.44833 446.295674,288.032677 444.849,285.966 L448.693,282.99 Z M474.919,261.6 L479.755,261.6 L479.755,290.616 L474.919,290.616 L474.919,261.6 Z M473.803,250.254 C473.803,249.303329 474.143997,248.47667 474.826,247.774 C475.508003,247.07133 476.344995,246.72 477.337,246.72 C478.329005,246.72 479.165997,247.07133 479.848,247.774 C480.530003,248.47667 480.871,249.303329 480.871,250.254 C480.871,251.287338 480.540337,252.134663 479.879,252.796 C479.217663,253.457337 478.370338,253.788 477.337,253.788 C476.303661,253.788 475.456337,253.457337 474.795,252.796 C474.133663,252.134663 473.803,251.287338 473.803,250.254 L473.803,250.254 Z M502.571,290.616 L497.239,290.616 L485.397,261.6 L491.039,261.6 L500.091,284.354 L500.215,284.354 L508.833,261.6 L514.041,261.6 L502.571,290.616 Z M545.165,285.346 C543.428991,287.578011 541.527677,289.138329 539.461,290.027 C537.394323,290.915671 534.997014,291.36 532.269,291.36 C529.995655,291.36 527.949676,290.957004 526.131,290.151 C524.312324,289.344996 522.772673,288.260007 521.512,286.896 C520.251327,285.531993 519.280003,283.920009 518.598,282.06 C517.915997,280.199991 517.575,278.216011 517.575,276.108 C517.575,273.875989 517.946996,271.819676 518.691,269.939 C519.435004,268.058324 520.468327,266.44634 521.791,265.103 C523.113673,263.75966 524.684324,262.716004 526.503,261.972 C528.321676,261.227996 530.305656,260.856 532.455,260.856 C534.480343,260.856 536.340325,261.196997 538.035,261.879 C539.729675,262.561003 541.186661,263.552993 542.406,264.855 C543.625339,266.157007 544.565663,267.748324 545.227,269.629 C545.888337,271.509676 546.219,273.648655 546.219,276.046 L546.219,277.596 L522.783,277.596 C522.865667,278.836006 523.165331,280.024328 523.682,281.161 C524.198669,282.297672 524.870329,283.289662 525.697,284.137 C526.523671,284.984338 527.494994,285.655998 528.611,286.152 C529.727006,286.648002 530.946327,286.896 532.269,286.896 C534.377011,286.896 536.154326,286.524004 537.601,285.78 C539.047674,285.035996 540.349661,283.940674 541.507,282.494 L545.165,285.346 Z M541.011,273.504 C540.928333,271.023988 540.122341,269.040007 538.593,267.552 C537.063659,266.063993 534.95568,265.32 532.269,265.32 C529.58232,265.32 527.412342,266.063993 525.759,267.552 C524.105658,269.040007 523.113668,271.023988 522.783,273.504 L541.011,273.504 Z M570.585,265.32 C572.073007,263.790659 573.83999,262.664337 575.886,261.941 C577.93201,261.217663 580.008989,260.856 582.117,260.856 C586.415688,260.856 589.515657,261.868657 591.417,263.894 C593.318343,265.919343 594.269,268.998646 594.269,273.132 L594.269,285.594 C594.269,286.420671 594.310333,287.278329 594.393,288.167 C594.475667,289.055671 594.578999,289.871996 594.703,290.616 L590.053,290.616 C589.887666,289.954663 589.794667,289.221004 589.774,288.415 C589.753333,287.608996 589.743,286.896003 589.743,286.276 L589.619,286.276 C588.668329,287.764007 587.397341,288.983329 585.806,289.934 C584.214659,290.884671 582.303011,291.36 580.071,291.36 C578.582993,291.36 577.188007,291.174002 575.886,290.802 C574.583993,290.429998 573.447338,289.882337 572.476,289.159 C571.504662,288.435663 570.72967,287.536672 570.151,286.462 C569.57233,285.387328 569.283,284.14734 569.283,282.742 C569.283,280.344655 569.902994,278.464007 571.143,277.1 C572.383006,275.735993 573.922657,274.723337 575.762,274.062 C577.601343,273.400663 579.585323,272.987334 581.714,272.822 C583.842677,272.656666 585.795658,272.574 587.573,272.574 L589.433,272.574 L589.433,271.706 C589.433,269.597989 588.802673,268.006672 587.542,266.932 C586.281327,265.857328 584.514345,265.32 582.241,265.32 C580.670325,265.32 579.130674,265.578331 577.622,266.095 C576.113326,266.611669 574.780339,267.407328 573.623,268.482 L570.585,265.32 Z M584.597,276.666 C581.496984,276.666 579.037676,277.099996 577.219,277.968 C575.400324,278.836004 574.491,280.26199 574.491,282.246 C574.491,284.064676 575.100661,285.35633 576.32,286.121 C577.539339,286.88567 579.058324,287.268 580.877,287.268 C582.28234,287.268 583.511995,287.030336 584.566,286.555 C585.620005,286.079664 586.49833,285.449337 587.201,284.664 C587.90367,283.878663 588.440998,282.959005 588.813,281.905 C589.185002,280.850995 589.391666,279.724673 589.433,278.526 L589.433,276.666 L584.597,276.666 Z M628.431,283.734 C628.431,285.056673 628.472333,286.296661 628.555,287.454 C628.637667,288.611339 628.679,289.665329 628.679,290.616 L624.091,290.616 C624.091,289.830663 624.070334,289.045337 624.029,288.26 C623.987666,287.474663 623.967,286.668671 623.967,285.842 L623.843,285.842 C623.512332,286.54467 623.047336,287.226663 622.448,287.888 C621.848664,288.549337 621.135671,289.138331 620.309,289.655 C619.482329,290.171669 618.552338,290.584998 617.519,290.895 C616.485661,291.205002 615.369673,291.36 614.171,291.36 C612.269657,291.36 610.626674,291.07067 609.242,290.492 C607.857326,289.91333 606.710338,289.107338 605.801,288.074 C604.891662,287.040661 604.220002,285.790341 603.786,284.323 C603.351998,282.855659 603.135,281.254009 603.135,279.518 L603.135,261.6 L607.971,261.6 L607.971,279.022 C607.971,281.460679 608.508328,283.38266 609.583,284.788 C610.657672,286.19334 612.331655,286.896 614.605,286.896 C616.175675,286.896 617.529328,286.627336 618.666,286.09 C619.802672,285.552664 620.732663,284.788005 621.456,283.796 C622.179337,282.803995 622.716665,281.626007 623.068,280.262 C623.419335,278.897993 623.595,277.389342 623.595,275.736 L623.595,261.6 L628.431,261.6 L628.431,283.734 Z M653.479,265.692 L644.923,265.692 L644.923,280.2 C644.923,281.150671 644.943666,282.028996 644.985,282.835 C645.026334,283.641004 645.191665,284.343664 645.481,284.943 C645.770335,285.542336 646.20433,286.017665 646.783,286.369 C647.36167,286.720335 648.188328,286.896 649.263,286.896 C649.96567,286.896 650.688996,286.813334 651.433,286.648 C652.177004,286.482666 652.879663,286.234668 653.541,285.904 L653.727,290.306 C652.900329,290.678002 651.980672,290.946666 650.968,291.112 C649.955328,291.277334 648.994338,291.36 648.085,291.36 C646.348991,291.36 644.964338,291.132669 643.931,290.678 C642.897661,290.223331 642.09167,289.582671 641.513,288.756 C640.93433,287.929329 640.552001,286.906339 640.366,285.687 C640.179999,284.467661 640.087,283.114007 640.087,281.626 L640.087,265.692 L633.763,265.692 L633.763,261.6 L640.087,261.6 L640.087,253.354 L644.923,253.354 L644.923,261.6 L653.479,261.6 L653.479,265.692 Z M659.493,243.744 L664.329,243.744 L664.329,265.63 L664.453,265.63 C664.783668,265.05133 665.23833,264.483003 665.817,263.925 C666.39567,263.366997 667.087996,262.860669 667.894,262.406 C668.700004,261.951331 669.598995,261.579335 670.591,261.29 C671.583005,261.000665 672.636994,260.856 673.753,260.856 C675.654343,260.856 677.297326,261.14533 678.682,261.724 C680.066674,262.30267 681.213662,263.108661 682.123,264.142 C683.032338,265.175338 683.703998,266.425659 684.138,267.893 C684.572002,269.360341 684.789,270.961991 684.789,272.698 L684.789,290.616 L679.953,290.616 L679.953,273.194 C679.953,270.755321 679.415672,268.83334 678.341,267.428 C677.266328,266.02266 675.592345,265.32 673.319,265.32 C671.748325,265.32 670.394672,265.588664 669.258,266.126 C668.121328,266.663336 667.191337,267.427995 666.468,268.42 C665.744663,269.412005 665.207335,270.589993 664.856,271.954 C664.504665,273.318007 664.329,274.826658 664.329,276.48 L664.329,290.616 L659.493,290.616 L659.493,243.744 Z M719.881,285.346 C718.144991,287.578011 716.243677,289.138329 714.177,290.027 C712.110323,290.915671 709.713014,291.36 706.985,291.36 C704.711655,291.36 702.665676,290.957004 700.847,290.151 C699.028324,289.344996 697.488673,288.260007 696.228,286.896 C694.967327,285.531993 693.996003,283.920009 693.314,282.06 C692.631997,280.199991 692.291,278.216011 692.291,276.108 C692.291,273.875989 692.662996,271.819676 693.407,269.939 C694.151004,268.058324 695.184327,266.44634 696.507,265.103 C697.829673,263.75966 699.400324,262.716004 701.219,261.972 C703.037676,261.227996 705.021656,260.856 707.171,260.856 C709.196343,260.856 711.056325,261.196997 712.751,261.879 C714.445675,262.561003 715.902661,263.552993 717.122,264.855 C718.341339,266.157007 719.281663,267.748324 719.943,269.629 C720.604337,271.509676 720.935,273.648655 720.935,276.046 L720.935,277.596 L697.499,277.596 C697.581667,278.836006 697.881331,280.024328 698.398,281.161 C698.914669,282.297672 699.586329,283.289662 700.413,284.137 C701.239671,284.984338 702.210994,285.655998 703.327,286.152 C704.443006,286.648002 705.662327,286.896 706.985,286.896 C709.093011,286.896 710.870326,286.524004 712.317,285.78 C713.763674,285.035996 715.065661,283.940674 716.223,282.494 L719.881,285.346 Z M715.727,273.504 C715.644333,271.023988 714.838341,269.040007 713.309,267.552 C711.779659,266.063993 709.67168,265.32 706.985,265.32 C704.29832,265.32 702.128342,266.063993 700.475,267.552 C698.821658,269.040007 697.829668,271.023988 697.499,273.504 L715.727,273.504 Z M728.437,268.482 C728.437,267.159327 728.395667,265.919339 728.313,264.762 C728.230333,263.604661 728.189,262.550671 728.189,261.6 L732.777,261.6 C732.777,262.385337 732.797666,263.170663 732.839,263.956 C732.880334,264.741337 732.901,265.547329 732.901,266.374 L733.025,266.374 C733.355668,265.67133 733.820664,264.989337 734.42,264.328 C735.019336,263.666663 735.732329,263.077669 736.559,262.561 C737.385671,262.044331 738.315661,261.631002 739.349,261.321 C740.382338,261.010998 741.498327,260.856 742.697,260.856 C744.598343,260.856 746.241326,261.14533 747.626,261.724 C749.010674,262.30267 750.157662,263.108661 751.067,264.142 C751.976338,265.175338 752.647998,266.425659 753.082,267.893 C753.516002,269.360341 753.733,270.961991 753.733,272.698 L753.733,290.616 L748.897,290.616 L748.897,273.194 C748.897,270.755321 748.359672,268.83334 747.285,267.428 C746.210328,266.02266 744.536345,265.32 742.263,265.32 C740.692325,265.32 739.338672,265.588664 738.202,266.126 C737.065328,266.663336 736.135337,267.427995 735.412,268.42 C734.688663,269.412005 734.151335,270.589993 733.8,271.954 C733.448665,273.318007 733.273,274.826658 733.273,276.48 L733.273,290.616 L728.437,290.616 L728.437,268.482 Z M778.781,265.692 L770.225,265.692 L770.225,280.2 C770.225,281.150671 770.245666,282.028996 770.287,282.835 C770.328334,283.641004 770.493665,284.343664 770.783,284.943 C771.072335,285.542336 771.50633,286.017665 772.085,286.369 C772.66367,286.720335 773.490328,286.896 774.565,286.896 C775.26767,286.896 775.990996,286.813334 776.735,286.648 C777.479004,286.482666 778.181663,286.234668 778.843,285.904 L779.029,290.306 C778.202329,290.678002 777.282672,290.946666 776.27,291.112 C775.257328,291.277334 774.296338,291.36 773.387,291.36 C771.650991,291.36 770.266338,291.132669 769.233,290.678 C768.199661,290.223331 767.39367,289.582671 766.815,288.756 C766.23633,287.929329 765.854001,286.906339 765.668,285.687 C765.481999,284.467661 765.389,283.114007 765.389,281.626 L765.389,265.692 L759.065,265.692 L759.065,261.6 L765.389,261.6 L765.389,253.354 L770.225,253.354 L770.225,261.6 L778.781,261.6 L778.781,265.692 Z M785.229,261.6 L790.065,261.6 L790.065,290.616 L785.229,290.616 L785.229,261.6 Z M784.113,250.254 C784.113,249.303329 784.453997,248.47667 785.136,247.774 C785.818003,247.07133 786.654995,246.72 787.647,246.72 C788.639005,246.72 789.475997,247.07133 790.158,247.774 C790.840003,248.47667 791.181,249.303329 791.181,250.254 C791.181,251.287338 790.850337,252.134663 790.189,252.796 C789.527663,253.457337 788.680338,253.788 787.647,253.788 C786.613661,253.788 785.766337,253.457337 785.105,252.796 C784.443663,252.134663 784.113,251.287338 784.113,250.254 L784.113,250.254 Z M820.321,268.854 C819.287661,267.613994 818.171673,266.715003 816.973,266.157 C815.774327,265.598997 814.451674,265.32 813.005,265.32 C811.392992,265.32 809.967006,265.598997 808.727,266.157 C807.486994,266.715003 806.464004,267.489995 805.658,268.482 C804.851996,269.474005 804.242335,270.620993 803.829,271.923 C803.415665,273.225007 803.209,274.619993 803.209,276.108 C803.209,277.596007 803.446664,278.990993 803.922,280.293 C804.397336,281.595007 805.058662,282.741995 805.906,283.734 C806.753338,284.726005 807.776327,285.500997 808.975,286.059 C810.173673,286.617003 811.516993,286.896 813.005,286.896 C816.187683,286.896 818.646991,285.697345 820.383,283.3 L823.979,286.71 C822.57366,288.322008 820.920343,289.499996 819.019,290.244 C817.117657,290.988004 815.113011,291.36 813.005,291.36 C810.772989,291.36 808.727009,290.988004 806.867,290.244 C805.006991,289.499996 803.426007,288.446007 802.124,287.082 C800.821993,285.717993 799.809337,284.106009 799.086,282.246 C798.362663,280.385991 798.001,278.340011 798.001,276.108 C798.001,273.917322 798.362663,271.892009 799.086,270.032 C799.809337,268.171991 800.832327,266.560007 802.155,265.196 C803.477673,263.831993 805.058657,262.76767 806.898,262.003 C808.737343,261.23833 810.772989,260.856 813.005,260.856 C815.154344,260.856 817.18999,261.227996 819.112,261.972 C821.03401,262.716004 822.718326,263.873325 824.165,265.444 L820.321,268.854 Z M829.187,265.32 C830.675007,263.790659 832.44199,262.664337 834.488,261.941 C836.53401,261.217663 838.610989,260.856 840.719,260.856 C845.017688,260.856 848.117657,261.868657 850.019,263.894 C851.920343,265.919343 852.871,268.998646 852.871,273.132 L852.871,285.594 C852.871,286.420671 852.912333,287.278329 852.995,288.167 C853.077667,289.055671 853.180999,289.871996 853.305,290.616 L848.655,290.616 C848.489666,289.954663 848.396667,289.221004 848.376,288.415 C848.355333,287.608996 848.345,286.896003 848.345,286.276 L848.221,286.276 C847.270329,287.764007 845.999341,288.983329 844.408,289.934 C842.816659,290.884671 840.905011,291.36 838.673,291.36 C837.184993,291.36 835.790007,291.174002 834.488,290.802 C833.185993,290.429998 832.049338,289.882337 831.078,289.159 C830.106662,288.435663 829.33167,287.536672 828.753,286.462 C828.17433,285.387328 827.885,284.14734 827.885,282.742 C827.885,280.344655 828.504994,278.464007 829.745,277.1 C830.985006,275.735993 832.524657,274.723337 834.364,274.062 C836.203343,273.400663 838.187323,272.987334 840.316,272.822 C842.444677,272.656666 844.397658,272.574 846.175,272.574 L848.035,272.574 L848.035,271.706 C848.035,269.597989 847.404673,268.006672 846.144,266.932 C844.883327,265.857328 843.116345,265.32 840.843,265.32 C839.272325,265.32 837.732674,265.578331 836.224,266.095 C834.715326,266.611669 833.382339,267.407328 832.225,268.482 L829.187,265.32 Z M843.199,276.666 C840.098984,276.666 837.639676,277.099996 835.821,277.968 C834.002324,278.836004 833.093,280.26199 833.093,282.246 C833.093,284.064676 833.702661,285.35633 834.922,286.121 C836.141339,286.88567 837.660324,287.268 839.479,287.268 C840.88434,287.268 842.113995,287.030336 843.168,286.555 C844.222005,286.079664 845.10033,285.449337 845.803,284.664 C846.50567,283.878663 847.042998,282.959005 847.415,281.905 C847.787002,280.850995 847.993666,279.724673 848.035,278.526 L848.035,276.666 L843.199,276.666 Z M877.609,265.692 L869.053,265.692 L869.053,280.2 C869.053,281.150671 869.073666,282.028996 869.115,282.835 C869.156334,283.641004 869.321665,284.343664 869.611,284.943 C869.900335,285.542336 870.33433,286.017665 870.913,286.369 C871.49167,286.720335 872.318328,286.896 873.393,286.896 C874.09567,286.896 874.818996,286.813334 875.563,286.648 C876.307004,286.482666 877.009663,286.234668 877.671,285.904 L877.857,290.306 C877.030329,290.678002 876.110672,290.946666 875.098,291.112 C874.085328,291.277334 873.124338,291.36 872.215,291.36 C870.478991,291.36 869.094338,291.132669 868.061,290.678 C867.027661,290.223331 866.22167,289.582671 865.643,288.756 C865.06433,287.929329 864.682001,286.906339 864.496,285.687 C864.309999,284.467661 864.217,283.114007 864.217,281.626 L864.217,265.692 L857.893,265.692 L857.893,261.6 L864.217,261.6 L864.217,253.354 L869.053,253.354 L869.053,261.6 L877.609,261.6 L877.609,265.692 Z M884.057,261.6 L888.893,261.6 L888.893,290.616 L884.057,290.616 L884.057,261.6 Z M882.941,250.254 C882.941,249.303329 883.281997,248.47667 883.964,247.774 C884.646003,247.07133 885.482995,246.72 886.475,246.72 C887.467005,246.72 888.303997,247.07133 888.986,247.774 C889.668003,248.47667 890.009,249.303329 890.009,250.254 C890.009,251.287338 889.678337,252.134663 889.017,252.796 C888.355663,253.457337 887.508338,253.788 886.475,253.788 C885.441661,253.788 884.594337,253.457337 883.933,252.796 C883.271663,252.134663 882.941,251.287338 882.941,250.254 L882.941,250.254 Z M896.829,276.108 C896.829,273.834655 897.221663,271.768009 898.007,269.908 C898.792337,268.047991 899.866993,266.44634 901.231,265.103 C902.595007,263.75966 904.227657,262.716004 906.129,261.972 C908.030343,261.227996 910.096989,260.856 912.329,260.856 C914.561011,260.856 916.627657,261.227996 918.529,261.972 C920.430343,262.716004 922.062993,263.75966 923.427,265.103 C924.791007,266.44634 925.865663,268.047991 926.651,269.908 C927.436337,271.768009 927.829,273.834655 927.829,276.108 C927.829,278.381345 927.436337,280.447991 926.651,282.308 C925.865663,284.168009 924.791007,285.76966 923.427,287.113 C922.062993,288.45634 920.430343,289.499996 918.529,290.244 C916.627657,290.988004 914.561011,291.36 912.329,291.36 C910.096989,291.36 908.030343,290.988004 906.129,290.244 C904.227657,289.499996 902.595007,288.45634 901.231,287.113 C899.866993,285.76966 898.792337,284.168009 898.007,282.308 C897.221663,280.447991 896.829,278.381345 896.829,276.108 L896.829,276.108 Z M902.037,276.108 C902.037,277.637341 902.274664,279.052993 902.75,280.355 C903.225336,281.657007 903.917662,282.793662 904.827,283.765 C905.736338,284.736338 906.821327,285.500997 908.082,286.059 C909.342673,286.617003 910.758325,286.896 912.329,286.896 C913.899675,286.896 915.315327,286.617003 916.576,286.059 C917.836673,285.500997 918.921662,284.736338 919.831,283.765 C920.740338,282.793662 921.432664,281.657007 921.908,280.355 C922.383336,279.052993 922.621,277.637341 922.621,276.108 C922.621,274.578659 922.383336,273.163007 921.908,271.861 C921.432664,270.558993 920.740338,269.422338 919.831,268.451 C918.921662,267.479662 917.836673,266.715003 916.576,266.157 C915.315327,265.598997 913.899675,265.32 912.329,265.32 C910.758325,265.32 909.342673,265.598997 908.082,266.157 C906.821327,266.715003 905.736338,267.479662 904.827,268.451 C903.917662,269.422338 903.225336,270.558993 902.75,271.861 C902.274664,273.163007 902.037,274.578659 902.037,276.108 L902.037,276.108 Z M935.331,268.482 C935.331,267.159327 935.289667,265.919339 935.207,264.762 C935.124333,263.604661 935.083,262.550671 935.083,261.6 L939.671,261.6 C939.671,262.385337 939.691666,263.170663 939.733,263.956 C939.774334,264.741337 939.795,265.547329 939.795,266.374 L939.919,266.374 C940.249668,265.67133 940.714664,264.989337 941.314,264.328 C941.913336,263.666663 942.626329,263.077669 943.453,262.561 C944.279671,262.044331 945.209661,261.631002 946.243,261.321 C947.276338,261.010998 948.392327,260.856 949.591,260.856 C951.492343,260.856 953.135326,261.14533 954.52,261.724 C955.904674,262.30267 957.051662,263.108661 957.961,264.142 C958.870338,265.175338 959.541998,266.425659 959.976,267.893 C960.410002,269.360341 960.627,270.961991 960.627,272.698 L960.627,290.616 L955.791,290.616 L955.791,273.194 C955.791,270.755321 955.253672,268.83334 954.179,267.428 C953.104328,266.02266 951.430345,265.32 949.157,265.32 C947.586325,265.32 946.232672,265.588664 945.096,266.126 C943.959328,266.663336 943.029337,267.427995 942.306,268.42 C941.582663,269.412005 941.045335,270.589993 940.694,271.954 C940.342665,273.318007 940.167,274.826658 940.167,276.48 L940.167,290.616 L935.331,290.616 L935.331,268.482 Z M989.519,265.692 L983.195,265.692 L983.195,261.6 L989.519,261.6 L989.519,255.09 C989.519,253.312658 989.684332,251.690341 990.015,250.223 C990.345668,248.755659 990.913996,247.484672 991.72,246.41 C992.526004,245.335328 993.590327,244.498336 994.913,243.899 C996.235673,243.299664 997.868324,243 999.811,243 C1000.431,243 1001.09233,243.061999 1001.795,243.186 C1002.49767,243.310001 1003.07633,243.495999 1003.531,243.744 L1002.849,248.084 C1001.69166,247.670665 1000.59634,247.464 999.563,247.464 C998.322994,247.464 997.35167,247.680998 996.649,248.115 C995.94633,248.549002 995.419335,249.14833 995.068,249.913 C994.716665,250.67767 994.51,251.597328 994.448,252.672 C994.386,253.746672 994.355,254.903994 994.355,256.144 L994.355,261.6 L1001.423,261.6 L1001.423,265.692 L994.355,265.692 L994.355,290.616 L989.519,290.616 L989.519,265.692 Z M1004.895,276.108 C1004.895,273.834655 1005.28766,271.768009 1006.073,269.908 C1006.85834,268.047991 1007.93299,266.44634 1009.297,265.103 C1010.66101,263.75966 1012.29366,262.716004 1014.195,261.972 C1016.09634,261.227996 1018.16299,260.856 1020.395,260.856 C1022.62701,260.856 1024.69366,261.227996 1026.595,261.972 C1028.49634,262.716004 1030.12899,263.75966 1031.493,265.103 C1032.85701,266.44634 1033.93166,268.047991 1034.717,269.908 C1035.50234,271.768009 1035.895,273.834655 1035.895,276.108 C1035.895,278.381345 1035.50234,280.447991 1034.717,282.308 C1033.93166,284.168009 1032.85701,285.76966 1031.493,287.113 C1030.12899,288.45634 1028.49634,289.499996 1026.595,290.244 C1024.69366,290.988004 1022.62701,291.36 1020.395,291.36 C1018.16299,291.36 1016.09634,290.988004 1014.195,290.244 C1012.29366,289.499996 1010.66101,288.45634 1009.297,287.113 C1007.93299,285.76966 1006.85834,284.168009 1006.073,282.308 C1005.28766,280.447991 1004.895,278.381345 1004.895,276.108 L1004.895,276.108 Z M1010.103,276.108 C1010.103,277.637341 1010.34066,279.052993 1010.816,280.355 C1011.29134,281.657007 1011.98366,282.793662 1012.893,283.765 C1013.80234,284.736338 1014.88733,285.500997 1016.148,286.059 C1017.40867,286.617003 1018.82433,286.896 1020.395,286.896 C1021.96567,286.896 1023.38133,286.617003 1024.642,286.059 C1025.90267,285.500997 1026.98766,284.736338 1027.897,283.765 C1028.80634,282.793662 1029.49866,281.657007 1029.974,280.355 C1030.44934,279.052993 1030.687,277.637341 1030.687,276.108 C1030.687,274.578659 1030.44934,273.163007 1029.974,271.861 C1029.49866,270.558993 1028.80634,269.422338 1027.897,268.451 C1026.98766,267.479662 1025.90267,266.715003 1024.642,266.157 C1023.38133,265.598997 1021.96567,265.32 1020.395,265.32 C1018.82433,265.32 1017.40867,265.598997 1016.148,266.157 C1014.88733,266.715003 1013.80234,267.479662 1012.893,268.451 C1011.98366,269.422338 1011.29134,270.558993 1010.816,271.861 C1010.34066,273.163007 1010.103,274.578659 1010.103,276.108 L1010.103,276.108 Z M1043.397,268.482 C1043.397,267.159327 1043.35567,265.919339 1043.273,264.762 C1043.19033,263.604661 1043.149,262.550671 1043.149,261.6 L1047.737,261.6 C1047.737,262.385337 1047.75767,263.170663 1047.799,263.956 C1047.84033,264.741337 1047.861,265.547329 1047.861,266.374 L1047.985,266.374 C1048.31567,265.67133 1048.78066,264.989337 1049.38,264.328 C1049.97934,263.666663 1050.69233,263.077669 1051.519,262.561 C1052.34567,262.044331 1053.27566,261.631002 1054.309,261.321 C1055.34234,261.010998 1056.45833,260.856 1057.657,260.856 C1057.98767,260.856 1058.31833,260.876666 1058.649,260.918 C1058.97967,260.959334 1059.31033,261.041999 1059.641,261.166 L1059.331,266.064 C1058.50433,265.815999 1057.63634,265.692 1056.727,265.692 C1053.75099,265.692 1051.59134,266.65299 1050.248,268.575 C1048.90466,270.49701 1048.233,273.131983 1048.233,276.48 L1048.233,290.616 L1043.397,290.616 L1043.397,268.482 Z M1083.325,246.72 L1089.897,246.72 L1115.317,283.176 L1115.441,283.176 L1115.441,246.72 L1120.649,246.72 L1120.649,290.616 L1114.077,290.616 L1088.657,254.16 L1088.533,254.16 L1088.533,290.616 L1083.325,290.616 L1083.325,246.72 Z M1129.019,276.108 C1129.019,273.834655 1129.41166,271.768009 1130.197,269.908 C1130.98234,268.047991 1132.05699,266.44634 1133.421,265.103 C1134.78501,263.75966 1136.41766,262.716004 1138.319,261.972 C1140.22034,261.227996 1142.28699,260.856 1144.519,260.856 C1146.75101,260.856 1148.81766,261.227996 1150.719,261.972 C1152.62034,262.716004 1154.25299,263.75966 1155.617,265.103 C1156.98101,266.44634 1158.05566,268.047991 1158.841,269.908 C1159.62634,271.768009 1160.019,273.834655 1160.019,276.108 C1160.019,278.381345 1159.62634,280.447991 1158.841,282.308 C1158.05566,284.168009 1156.98101,285.76966 1155.617,287.113 C1154.25299,288.45634 1152.62034,289.499996 1150.719,290.244 C1148.81766,290.988004 1146.75101,291.36 1144.519,291.36 C1142.28699,291.36 1140.22034,290.988004 1138.319,290.244 C1136.41766,289.499996 1134.78501,288.45634 1133.421,287.113 C1132.05699,285.76966 1130.98234,284.168009 1130.197,282.308 C1129.41166,280.447991 1129.019,278.381345 1129.019,276.108 L1129.019,276.108 Z M1134.227,276.108 C1134.227,277.637341 1134.46466,279.052993 1134.94,280.355 C1135.41534,281.657007 1136.10766,282.793662 1137.017,283.765 C1137.92634,284.736338 1139.01133,285.500997 1140.272,286.059 C1141.53267,286.617003 1142.94833,286.896 1144.519,286.896 C1146.08967,286.896 1147.50533,286.617003 1148.766,286.059 C1150.02667,285.500997 1151.11166,284.736338 1152.021,283.765 C1152.93034,282.793662 1153.62266,281.657007 1154.098,280.355 C1154.57334,279.052993 1154.811,277.637341 1154.811,276.108 C1154.811,274.578659 1154.57334,273.163007 1154.098,271.861 C1153.62266,270.558993 1152.93034,269.422338 1152.021,268.451 C1151.11166,267.479662 1150.02667,266.715003 1148.766,266.157 C1147.50533,265.598997 1146.08967,265.32 1144.519,265.32 C1142.94833,265.32 1141.53267,265.598997 1140.272,266.157 C1139.01133,266.715003 1137.92634,267.479662 1137.017,268.451 C1136.10766,269.422338 1135.41534,270.558993 1134.94,271.861 C1134.46466,273.163007 1134.227,274.578659 1134.227,276.108 L1134.227,276.108 Z M1191.639,285.47 L1191.515,285.47 C1190.60566,287.123342 1189.16934,288.518328 1187.206,289.655 C1185.24266,290.791672 1182.95901,291.36 1180.355,291.36 C1178.32966,291.36 1176.42834,290.97767 1174.651,290.213 C1172.87366,289.44833 1171.33401,288.384007 1170.032,287.02 C1168.72999,285.655993 1167.707,284.044009 1166.963,282.184 C1166.219,280.323991 1165.847,278.298678 1165.847,276.108 C1165.847,273.917322 1166.219,271.892009 1166.963,270.032 C1167.707,268.171991 1168.74033,266.560007 1170.063,265.196 C1171.38567,263.831993 1172.98732,262.76767 1174.868,262.003 C1176.74868,261.23833 1178.82566,260.856 1181.099,260.856 C1183.20701,260.856 1185.13932,261.289996 1186.896,262.158 C1188.65268,263.026004 1190.19233,264.245325 1191.515,265.816 L1191.639,265.816 L1191.639,243.744 L1196.475,243.744 L1196.475,290.616 L1191.639,290.616 L1191.639,285.47 Z M1191.639,276.108 C1191.639,274.578659 1191.40134,273.163007 1190.926,271.861 C1190.45066,270.558993 1189.75834,269.422338 1188.849,268.451 C1187.93966,267.479662 1186.85467,266.715003 1185.594,266.157 C1184.33333,265.598997 1182.91767,265.32 1181.347,265.32 C1179.77633,265.32 1178.36067,265.598997 1177.1,266.157 C1175.83933,266.715003 1174.75434,267.479662 1173.845,268.451 C1172.93566,269.422338 1172.24334,270.558993 1171.768,271.861 C1171.29266,273.163007 1171.055,274.578659 1171.055,276.108 C1171.055,277.637341 1171.29266,279.052993 1171.768,280.355 C1172.24334,281.657007 1172.93566,282.793662 1173.845,283.765 C1174.75434,284.736338 1175.83933,285.500997 1177.1,286.059 C1178.36067,286.617003 1179.77633,286.896 1181.347,286.896 C1182.91767,286.896 1184.33333,286.617003 1185.594,286.059 C1186.85467,285.500997 1187.93966,284.736338 1188.849,283.765 C1189.75834,282.793662 1190.45066,281.657007 1190.926,280.355 C1191.40134,279.052993 1191.639,277.637341 1191.639,276.108 L1191.639,276.108 Z M1231.319,285.346 C1229.58299,287.578011 1227.68168,289.138329 1225.615,290.027 C1223.54832,290.915671 1221.15101,291.36 1218.423,291.36 C1216.14966,291.36 1214.10368,290.957004 1212.285,290.151 C1210.46632,289.344996 1208.92667,288.260007 1207.666,286.896 C1206.40533,285.531993 1205.434,283.920009 1204.752,282.06 C1204.07,280.199991 1203.729,278.216011 1203.729,276.108 C1203.729,273.875989 1204.101,271.819676 1204.845,269.939 C1205.589,268.058324 1206.62233,266.44634 1207.945,265.103 C1209.26767,263.75966 1210.83832,262.716004 1212.657,261.972 C1214.47568,261.227996 1216.45966,260.856 1218.609,260.856 C1220.63434,260.856 1222.49432,261.196997 1224.189,261.879 C1225.88368,262.561003 1227.34066,263.552993 1228.56,264.855 C1229.77934,266.157007 1230.71966,267.748324 1231.381,269.629 C1232.04234,271.509676 1232.373,273.648655 1232.373,276.046 L1232.373,277.596 L1208.937,277.596 C1209.01967,278.836006 1209.31933,280.024328 1209.836,281.161 C1210.35267,282.297672 1211.02433,283.289662 1211.851,284.137 C1212.67767,284.984338 1213.64899,285.655998 1214.765,286.152 C1215.88101,286.648002 1217.10033,286.896 1218.423,286.896 C1220.53101,286.896 1222.30833,286.524004 1223.755,285.78 C1225.20167,285.035996 1226.50366,283.940674 1227.661,282.494 L1231.319,285.346 Z M1227.165,273.504 C1227.08233,271.023988 1226.27634,269.040007 1224.747,267.552 C1223.21766,266.063993 1221.10968,265.32 1218.423,265.32 C1215.73632,265.32 1213.56634,266.063993 1211.913,267.552 C1210.25966,269.040007 1209.26767,271.023988 1208.937,273.504 L1227.165,273.504 Z M1243.905,283.548 C1244.93834,283.548 1245.81666,283.909663 1246.54,284.633 C1247.26334,285.356337 1247.625,286.234662 1247.625,287.268 C1247.625,288.301338 1247.24267,289.179663 1246.478,289.903 C1245.71333,290.626337 1244.85567,290.988 1243.905,290.988 C1242.95433,290.988 1242.09667,290.626337 1241.332,289.903 C1240.56733,289.179663 1240.185,288.301338 1240.185,287.268 C1240.185,286.234662 1240.54666,285.356337 1241.27,284.633 C1241.99334,283.909663 1242.87166,283.548 1243.905,283.548 L1243.905,283.548 Z M1262.381,297.126 C1262.381,297.870004 1262.26733,298.727662 1262.04,299.699 C1261.81267,300.670338 1261.389,301.579662 1260.769,302.427 C1260.149,303.274338 1259.27067,303.997664 1258.134,304.597 C1256.99733,305.196336 1255.54034,305.496 1253.763,305.496 C1253.18433,305.496 1252.616,305.454667 1252.058,305.372 C1251.5,305.289333 1250.95234,305.124001 1250.415,304.876 L1250.973,300.66 C1251.75834,300.908001 1252.54366,301.032 1253.329,301.032 C1254.23834,301.032 1254.972,300.866668 1255.53,300.536 C1256.088,300.205332 1256.51167,299.761003 1256.801,299.203 C1257.09033,298.644997 1257.28667,297.994004 1257.39,297.25 C1257.49333,296.505996 1257.545,295.720671 1257.545,294.894 L1257.545,261.6 L1262.381,261.6 L1262.381,297.126 Z M1256.429,250.254 C1256.429,249.303329 1256.77,248.47667 1257.452,247.774 C1258.134,247.07133 1258.971,246.72 1259.963,246.72 C1260.955,246.72 1261.792,247.07133 1262.474,247.774 C1263.156,248.47667 1263.497,249.303329 1263.497,250.254 C1263.497,251.287338 1263.16634,252.134663 1262.505,252.796 C1261.84366,253.457337 1260.99634,253.788 1259.963,253.788 C1258.92966,253.788 1258.08234,253.457337 1257.421,252.796 C1256.75966,252.134663 1256.429,251.287338 1256.429,250.254 L1256.429,250.254 Z M1272.611,282.99 C1273.56167,284.188673 1274.60533,285.13933 1275.742,285.842 C1276.87867,286.54467 1278.31499,286.896 1280.051,286.896 C1280.795,286.896 1281.54933,286.813334 1282.314,286.648 C1283.07867,286.482666 1283.771,286.214002 1284.391,285.842 C1285.011,285.469998 1285.507,285.005003 1285.879,284.447 C1286.251,283.888997 1286.437,283.217337 1286.437,282.432 C1286.437,281.646663 1286.26134,281.006002 1285.91,280.51 C1285.55866,280.013998 1285.09367,279.590335 1284.515,279.239 C1283.93633,278.887665 1283.275,278.608668 1282.531,278.402 C1281.787,278.195332 1281.02234,278.009334 1280.237,277.844 C1278.87299,277.554665 1277.57101,277.224002 1276.331,276.852 C1275.09099,276.479998 1274.006,275.994336 1273.076,275.395 C1272.146,274.795664 1271.402,274.020671 1270.844,273.07 C1270.286,272.119329 1270.007,270.900007 1270.007,269.412 C1270.007,268.00666 1270.317,266.766672 1270.937,265.692 C1271.557,264.617328 1272.38366,263.72867 1273.417,263.026 C1274.45034,262.32333 1275.60766,261.786002 1276.889,261.414 C1278.17034,261.041998 1279.49299,260.856 1280.857,260.856 C1282.92368,260.856 1284.83532,261.269329 1286.592,262.096 C1288.34868,262.922671 1289.723,264.265991 1290.715,266.126 L1286.685,268.792 C1286.065,267.758662 1285.24867,266.92167 1284.236,266.281 C1283.22333,265.64033 1281.99367,265.32 1280.547,265.32 C1279.88566,265.32 1279.214,265.402666 1278.532,265.568 C1277.85,265.733334 1277.24034,265.981332 1276.703,266.312 C1276.16566,266.642668 1275.72134,267.066331 1275.37,267.583 C1275.01866,268.099669 1274.843,268.688663 1274.843,269.35 C1274.843,269.970003 1275.03933,270.496998 1275.432,270.931 C1275.82467,271.365002 1276.362,271.747332 1277.044,272.078 C1277.726,272.408668 1278.51133,272.697999 1279.4,272.946 C1280.28867,273.194001 1281.20833,273.400666 1282.159,273.566 C1283.44034,273.814001 1284.65966,274.134331 1285.817,274.527 C1286.97434,274.919669 1287.987,275.446663 1288.855,276.108 C1289.723,276.769337 1290.405,277.595995 1290.901,278.588 C1291.397,279.580005 1291.645,280.799326 1291.645,282.246 C1291.645,283.899342 1291.31434,285.304661 1290.653,286.462 C1289.99166,287.619339 1289.11334,288.559663 1288.018,289.283 C1286.92266,290.006337 1285.68267,290.533332 1284.298,290.864 C1282.91333,291.194668 1281.49767,291.36 1280.051,291.36 C1277.57099,291.36 1275.43201,290.97767 1273.634,290.213 C1271.83599,289.44833 1270.21367,288.032677 1268.767,285.966 L1272.611,282.99 Z" id="Simple,-unobtrusive-" fill="#FFFFFF" sketch:type="MSShapeGroup"></path>
                    <g id="Terminal" stroke-width="1" fill="none" sketch:type="MSLayerGroup" transform="translate(147.733333, 389.000000)">
                        <mask id="mask-4" sketch:name="Mask" fill="white">
                            <use xlink:href="#path-3"></use>
                        </mask>
                        <use id="Mask" fill="#FFFFFF" sketch:type="MSShapeGroup" xlink:href="#path-3"></use>
                        <path d="M42.37,46.6666667 C48.527975,46.6666667 53.52,41.6920528 53.52,35.5555556 C53.52,29.4190583 48.527975,24.4444444 42.37,24.4444444 C36.212025,24.4444444 31.22,29.4190583 31.22,35.5555556 C31.22,41.6920528 36.212025,46.6666667 42.37,46.6666667 Z" id="Oval-13" fill="#FF5F57" sketch:type="MSShapeGroup" mask="url(#mask-4)"></path>
                        <path d="M75.82,46.6666667 C81.977975,46.6666667 86.97,41.6920528 86.97,35.5555556 C86.97,29.4190583 81.977975,24.4444444 75.82,24.4444444 C69.662025,24.4444444 64.67,29.4190583 64.67,35.5555556 C64.67,41.6920528 69.662025,46.6666667 75.82,46.6666667 Z" id="Oval-14" fill="#FFBD2E" sketch:type="MSShapeGroup" mask="url(#mask-4)"></path>
                        <path d="M109.27,46.6666667 C115.427975,46.6666667 120.42,41.6920528 120.42,35.5555556 C120.42,29.4190583 115.427975,24.4444444 109.27,24.4444444 C103.112025,24.4444444 98.12,29.4190583 98.12,35.5555556 C98.12,41.6920528 103.112025,46.6666667 109.27,46.6666667 Z" id="Oval-19" fill="#2ACE42" sketch:type="MSShapeGroup" mask="url(#mask-4)"></path>
                        <g id="Rectangle-32-+-Group-3-+-Group-2" mask="url(#mask-4)">
                            <g transform="translate(-178.000000, 68.000000)">
                                <mask id="mask-6" sketch:name="Rectangle 32" fill="white">
                                    <use xlink:href="#path-5"></use>
                                </mask>
                                <use id="Rectangle-32" stroke="none" fill="#212121" fill-rule="evenodd" sketch:type="MSShapeGroup" xlink:href="#path-5"></use>
                            </g>
                        </g>
                        <text id="$-passport.authentic" sketch:type="MSTextLayer" mask="url(#mask-4)" font-family="Menlo" font-size="28" font-weight="normal" sketch:alignment="middle" fill="#FFFFFF">
                            <tspan x="51.9951172" y="183">$ passport.authenticate('facebook')</tspan>
                        </text>
                        <text id="app.js----vim" sketch:type="MSTextLayer" mask="url(#mask-4)" font-family="Menlo" font-size="28" font-weight="normal" sketch:alignment="middle" line-spacing="20" fill="#444F5E">
                            <tspan x="391" y="44">app.js -- vim</tspan>
                        </text>
                    </g>
                </g>
            </g>
        </g>
    </g>
</svg>