<?xml version="1.0" encoding="UTF-8" standalone="no"?>
<svg width="1505px" height="806px" viewBox="0 0 1505 806" version="1.1" xmlns="http://www.w3.org/2000/svg" xmlns:xlink="http://www.w3.org/1999/xlink" xmlns:sketch="http://www.bohemiancoding.com/sketch/ns">
    <!-- Generator: Sketch 3.3.1 (12002) - http://www.bohemiancoding.com/sketch -->
    <title>Rectangle 1 + passport + Simple, unobtrusive </title>
    <desc>Created with Sketch.</desc>
    <defs></defs>
    <g id="Page-1" stroke="none" stroke-width="1" fill="none" fill-rule="evenodd" sketch:type="MSPage">
        <g id="Rectangle-1-+-passport-+-Simple,-unobtrusive-" sketch:type="MSLayerGroup">
            <rect id="Rectangle-1" fill="#000000" sketch:type="MSShapeGroup" x="0" y="0" width="1504.53333" height="806"></rect>
            <g id="passport-+-Simple,-unobtrusive-" transform="translate(106.266667, 185.000000)" sketch:type="MSShapeGroup">
                <g id="passport" transform="translate(550.000000, 0.000000)">
                    <g id="Page-1">
                        <g id="passport_final">
                            <g id="Group">
                                <g id="Shape">
                                    <path d="M96,143.928144 L96,191.856287 C148.656716,191.856287 191.498507,148.886228 191.498507,96.0718563 C191.498507,43.257485 148.656716,0.215568862 96,0.215568862 C43.3432836,0.215568862 0.501492537,43.1856287 0.501492537,96 L0.501492537,239.712575 L29.4447761,239.712575 L96,239.712575 L96,191.856287 L48.2149254,191.856287 L48.2149254,96.0718563 C48.2149254,69.6287425 69.5641791,48.1437126 96,48.1437126 C122.435821,48.1437126 143.785075,69.5568862 143.785075,96.0718563 C143.785075,122.51497 122.364179,143.928144 96,143.928144 L96,143.928144 L96,143.928144 Z" fill="#FFFFFF"></path>
                                    <path d="M143.785075,96.0718563 L191.498507,96.0718563 C191.498507,43.257485 148.656716,0.28742515 96,0.28742515 L96,48.1437126 C122.364179,48.1437126 143.785075,69.5568862 143.785075,96.0718563 L143.785075,96.0718563 L143.785075,96.0718563 Z" fill="#34E27A"></path>
                                    <path d="M96,144 L96,191.856287 C148.656716,191.856287 191.498507,148.886228 191.498507,96.0718563 L143.785075,96.0718563 C143.785075,122.51497 122.364179,144 96,144 L96,144 L96,144 Z" fill="#00B9F1"></path>
                                    <path d="M48.2149254,96.0718563 C48.2149254,69.6287425 69.6358209,48.1437126 96,48.1437126 L96,0.28742515 C43.3432836,0.28742515 0.501492537,43.257485 0.501492537,96.0718563 L48.2149254,96.0718563 L48.2149254,96.0718563 Z" fill="#D6FF00"></path>
                                </g>
                            </g>
                        </g>
                    </g>
                </g>
                <path d="M24.5616667,376.854 C23.6936623,375.44866 22.5363406,374.42567 21.0896667,373.785 C19.6429928,373.14433 18.1343412,372.824 16.5636667,372.824 C15.4063275,372.824 14.2696722,372.968665 13.1536667,373.258 C12.0376611,373.547335 11.0353378,373.98133 10.1466667,374.56 C9.25799556,375.13867 8.54500269,375.903329 8.00766667,376.854 C7.47033065,377.804671 7.20166667,378.92066 7.20166667,380.202 C7.20166667,381.194005 7.35666512,382.07233 7.66666667,382.837 C7.97666822,383.60167 8.48299649,384.293997 9.18566667,384.914 C9.88833685,385.534003 10.838994,386.112664 12.0376667,386.65 C13.2363393,387.187336 14.703658,387.724664 16.4396667,388.262 C18.1343418,388.799336 19.7773254,389.377997 21.3686667,389.998 C22.960008,390.618003 24.3653272,391.403329 25.5846667,392.354 C26.8040061,393.304671 27.7753297,394.492993 28.4986667,395.919 C29.2220036,397.345007 29.5836667,399.132656 29.5836667,401.282 C29.5836667,403.472678 29.149671,405.373992 28.2816667,406.986 C27.4136623,408.598008 26.2666738,409.930995 24.8406667,410.985 C23.4146595,412.039005 21.771676,412.824331 19.9116667,413.341 C18.0516574,413.857669 16.1296766,414.116 14.1456667,414.116 C12.8643269,414.116 11.5830064,414.002334 10.3016667,413.775 C9.02032693,413.547666 7.79067256,413.196336 6.61266667,412.721 C5.43466078,412.245664 4.32900517,411.62567 3.29566667,410.861 C2.26232817,410.09633 1.37367039,409.156006 0.629666667,408.04 L5.09366667,404.382 C6.04433809,405.994008 7.36699153,407.213329 9.06166667,408.04 C10.7563418,408.866671 12.5543238,409.28 14.4556667,409.28 C15.5716722,409.28 16.6979943,409.114668 17.8346667,408.784 C18.971339,408.453332 19.9943288,407.96767 20.9036667,407.327 C21.8130045,406.68633 22.5569971,405.890671 23.1356667,404.94 C23.7143362,403.989329 24.0036667,402.894006 24.0036667,401.654 C24.0036667,400.289993 23.7763356,399.184338 23.3216667,398.337 C22.8669977,397.489662 22.1643381,396.756003 21.2136667,396.136 C20.2629952,395.515997 19.0643406,394.958002 17.6176667,394.462 C16.1709928,393.965998 14.476343,393.387337 12.5336667,392.726 C10.9629921,392.229998 9.51633995,391.66167 8.19366667,391.021 C6.87099339,390.38033 5.72400486,389.595005 4.75266667,388.665 C3.78132848,387.734995 3.01666946,386.619007 2.45866667,385.317 C1.90066388,384.014993 1.62166667,382.454676 1.62166667,380.636 C1.62166667,378.527989 2.03499587,376.688675 2.86166667,375.118 C3.68833747,373.547325 4.80432631,372.235005 6.20966667,371.181 C7.61500703,370.126995 9.20632445,369.331336 10.9836667,368.794 C12.7610089,368.256664 14.6209903,367.988 16.5636667,367.988 C19.0436791,367.988 21.3066564,368.37033 23.3526667,369.135 C25.3986769,369.89967 27.2276586,371.232657 28.8396667,373.134 L24.5616667,376.854 Z M37.7676667,383.984 L42.6036667,383.984 L42.6036667,413 L37.7676667,413 L37.7676667,383.984 Z M36.6516667,372.638 C36.6516667,371.687329 36.9926633,370.86067 37.6746667,370.158 C38.3566701,369.45533 39.1936617,369.104 40.1856667,369.104 C41.1776716,369.104 42.0146633,369.45533 42.6966667,370.158 C43.3786701,370.86067 43.7196667,371.687329 43.7196667,372.638 C43.7196667,373.671338 43.3890033,374.518663 42.7276667,375.18 C42.06633,375.841337 41.2190052,376.172 40.1856667,376.172 C39.1523282,376.172 38.3050033,375.841337 37.6436667,375.18 C36.98233,374.518663 36.6516667,373.671338 36.6516667,372.638 L36.6516667,372.638 Z M52.2136667,390.866 C52.2136667,389.543327 52.1723337,388.303339 52.0896667,387.146 C52.0069996,385.988661 51.9656667,384.934671 51.9656667,383.984 L56.5536667,383.984 C56.5536667,384.769337 56.5743331,385.554663 56.6156667,386.34 C56.6570002,387.125337 56.6776667,387.931329 56.6776667,388.758 L56.8016667,388.758 C57.132335,388.05533 57.5973303,387.373337 58.1966667,386.712 C58.796003,386.050663 59.5089959,385.461669 60.3356667,384.945 C61.1623375,384.428331 62.0923282,384.015002 63.1256667,383.705 C64.1590052,383.394998 65.274994,383.24 66.4736667,383.24 C68.0443412,383.24 69.3566614,383.436331 70.4106667,383.829 C71.4646719,384.221669 72.3429965,384.696997 73.0456667,385.255 C73.7483368,385.813003 74.295998,386.41233 74.6886667,387.053 C75.0813353,387.69367 75.4016654,388.261998 75.6496667,388.758 C76.7243387,387.021991 77.9643263,385.668338 79.3696667,384.697 C80.775007,383.725662 82.5936555,383.24 84.8256667,383.24 C86.8923437,383.24 88.6283263,383.518997 90.0336667,384.077 C91.439007,384.635003 92.5756623,385.440995 93.4436667,386.495 C94.311671,387.549005 94.9316648,388.830326 95.3036667,390.339 C95.6756685,391.847674 95.8616667,393.531991 95.8616667,395.392 L95.8616667,413 L91.0256667,413 L91.0256667,395.64 C91.0256667,394.647995 90.9223344,393.676671 90.7156667,392.726 C90.508999,391.775329 90.1370027,390.928004 89.5996667,390.184 C89.0623306,389.439996 88.3390045,388.840669 87.4296667,388.386 C86.5203288,387.931331 85.363007,387.704 83.9576667,387.704 C82.9243282,387.704 81.9530045,387.910665 81.0436667,388.324 C80.1343288,388.737335 79.3386701,389.315996 78.6566667,390.06 C77.9746633,390.804004 77.4373353,391.702995 77.0446667,392.757 C76.651998,393.811005 76.4556667,394.97866 76.4556667,396.26 L76.4556667,413 L71.6196667,413 L71.6196667,396.57 C71.6196667,393.345984 71.185671,391.06234 70.3176667,389.719 C69.4496623,388.37566 68.0236766,387.704 66.0396667,387.704 C64.4689921,387.704 63.115339,387.972664 61.9786667,388.51 C60.8419943,389.047336 59.9120036,389.811995 59.1886667,390.804 C58.4653297,391.796005 57.9280018,392.973993 57.5766667,394.338 C57.2253316,395.702007 57.0496667,397.210658 57.0496667,398.864 L57.0496667,413 L52.2136667,413 L52.2136667,390.866 Z M104.789667,383.984 L109.625667,383.984 L109.625667,388.2 L109.749667,388.2 C111.07234,386.629325 112.611991,385.410004 114.368667,384.542 C116.125342,383.673996 118.057656,383.24 120.165667,383.24 C122.439011,383.24 124.515991,383.62233 126.396667,384.387 C128.277343,385.15167 129.878993,386.215993 131.201667,387.58 C132.52434,388.944007 133.557663,390.555991 134.301667,392.416 C135.04567,394.276009 135.417667,396.301322 135.417667,398.492 C135.417667,400.682678 135.04567,402.707991 134.301667,404.568 C133.557663,406.428009 132.534673,408.039993 131.232667,409.404 C129.93066,410.768007 128.391009,411.83233 126.613667,412.597 C124.836324,413.36167 122.93501,413.744 120.909667,413.744 C118.305654,413.744 116.02201,413.175672 114.058667,412.039 C112.095324,410.902328 110.659005,409.507342 109.749667,407.854 L109.625667,407.854 L109.625667,427.136 L104.789667,427.136 L104.789667,383.984 Z M109.625667,398.492 C109.625667,400.021341 109.863331,401.436993 110.338667,402.739 C110.814002,404.041007 111.506329,405.177662 112.415667,406.149 C113.325005,407.120338 114.409994,407.884997 115.670667,408.443 C116.93134,409.001003 118.346992,409.28 119.917667,409.28 C121.488341,409.28 122.903994,409.001003 124.164667,408.443 C125.42534,407.884997 126.510329,407.120338 127.419667,406.149 C128.329005,405.177662 129.021331,404.041007 129.496667,402.739 C129.972002,401.436993 130.209667,400.021341 130.209667,398.492 C130.209667,396.962659 129.972002,395.547007 129.496667,394.245 C129.021331,392.942993 128.329005,391.806338 127.419667,390.835 C126.510329,389.863662 125.42534,389.099003 124.164667,388.541 C122.903994,387.982997 121.488341,387.704 119.917667,387.704 C118.346992,387.704 116.93134,387.982997 115.670667,388.541 C114.409994,389.099003 113.325005,389.863662 112.415667,390.835 C111.506329,391.806338 110.814002,392.942993 110.338667,394.245 C109.863331,395.547007 109.625667,396.962659 109.625667,398.492 L109.625667,398.492 Z M143.353667,366.128 L148.189667,366.128 L148.189667,413 L143.353667,413 L143.353667,366.128 Z M183.715667,407.73 C181.979658,409.962011 180.078344,411.522329 178.011667,412.411 C175.94499,413.299671 173.54768,413.744 170.819667,413.744 C168.546322,413.744 166.500342,413.341004 164.681667,412.535 C162.862991,411.728996 161.32334,410.644007 160.062667,409.28 C158.801994,407.915993 157.83067,406.304009 157.148667,404.444 C156.466663,402.583991 156.125667,400.600011 156.125667,398.492 C156.125667,396.259989 156.497663,394.203676 157.241667,392.323 C157.98567,390.442324 159.018993,388.83034 160.341667,387.487 C161.66434,386.14366 163.234991,385.100004 165.053667,384.356 C166.872342,383.611996 168.856323,383.24 171.005667,383.24 C173.03101,383.24 174.890992,383.580997 176.585667,384.263 C178.280342,384.945003 179.737327,385.936993 180.956667,387.239 C182.176006,388.541007 183.11633,390.132324 183.777667,392.013 C184.439003,393.893676 184.769667,396.032655 184.769667,398.43 L184.769667,399.98 L161.333667,399.98 C161.416334,401.220006 161.715997,402.408328 162.232667,403.545 C162.749336,404.681672 163.420996,405.673662 164.247667,406.521 C165.074337,407.368338 166.045661,408.039998 167.161667,408.536 C168.277672,409.032002 169.496993,409.28 170.819667,409.28 C172.927677,409.28 174.704993,408.908004 176.151667,408.164 C177.598341,407.419996 178.900328,406.324674 180.057667,404.878 L183.715667,407.73 Z M179.561667,395.888 C179.479,393.407988 178.673008,391.424007 177.143667,389.936 C175.614326,388.447993 173.506347,387.704 170.819667,387.704 C168.132987,387.704 165.963008,388.447993 164.309667,389.936 C162.656325,391.424007 161.664335,393.407988 161.333667,395.888 L179.561667,395.888 Z M195.681667,421.556 L190.907667,421.556 L195.123667,406.676 L200.765667,406.676 L195.681667,421.556 Z M252.039667,406.118 C252.039667,407.440673 252.081,408.680661 252.163667,409.838 C252.246334,410.995339 252.287667,412.049329 252.287667,413 L247.699667,413 C247.699667,412.214663 247.679,411.429337 247.637667,410.644 C247.596333,409.858663 247.575667,409.052671 247.575667,408.226 L247.451667,408.226 C247.120998,408.92867 246.656003,409.610663 246.056667,410.272 C245.45733,410.933337 244.744337,411.522331 243.917667,412.039 C243.090996,412.555669 242.161005,412.968998 241.127667,413.279 C240.094328,413.589002 238.978339,413.744 237.779667,413.744 C235.878324,413.744 234.23534,413.45467 232.850667,412.876 C231.465993,412.29733 230.319005,411.491338 229.409667,410.458 C228.500329,409.424662 227.828669,408.174341 227.394667,406.707 C226.960664,405.239659 226.743667,403.638009 226.743667,401.902 L226.743667,383.984 L231.579667,383.984 L231.579667,401.406 C231.579667,403.844679 232.116995,405.76666 233.191667,407.172 C234.266339,408.57734 235.940322,409.28 238.213667,409.28 C239.784341,409.28 241.137994,409.011336 242.274667,408.474 C243.411339,407.936664 244.34133,407.172005 245.064667,406.18 C245.788004,405.187995 246.325332,404.010007 246.676667,402.646 C247.028002,401.281993 247.203667,399.773342 247.203667,398.12 L247.203667,383.984 L252.039667,383.984 L252.039667,406.118 Z M261.215667,390.866 C261.215667,389.543327 261.174334,388.303339 261.091667,387.146 C261.009,385.988661 260.967667,384.934671 260.967667,383.984 L265.555667,383.984 C265.555667,384.769337 265.576333,385.554663 265.617667,386.34 C265.659,387.125337 265.679667,387.931329 265.679667,388.758 L265.803667,388.758 C266.134335,388.05533 266.59933,387.373337 267.198667,386.712 C267.798003,386.050663 268.510996,385.461669 269.337667,384.945 C270.164337,384.428331 271.094328,384.015002 272.127667,383.705 C273.161005,383.394998 274.276994,383.24 275.475667,383.24 C277.37701,383.24 279.019993,383.52933 280.404667,384.108 C281.78934,384.68667 282.936329,385.492661 283.845667,386.526 C284.755005,387.559338 285.426664,388.809659 285.860667,390.277 C286.294669,391.744341 286.511667,393.345991 286.511667,395.082 L286.511667,413 L281.675667,413 L281.675667,395.578 C281.675667,393.139321 281.138339,391.21734 280.063667,389.812 C278.988995,388.40666 277.315011,387.704 275.041667,387.704 C273.470992,387.704 272.117339,387.972664 270.980667,388.51 C269.843994,389.047336 268.914004,389.811995 268.190667,390.804 C267.46733,391.796005 266.930002,392.973993 266.578667,394.338 C266.227332,395.702007 266.051667,397.210658 266.051667,398.864 L266.051667,413 L261.215667,413 L261.215667,390.866 Z M294.013667,398.492 C294.013667,396.218655 294.406329,394.152009 295.191667,392.292 C295.977004,390.431991 297.05166,388.83034 298.415667,387.487 C299.779673,386.14366 301.412324,385.100004 303.313667,384.356 C305.21501,383.611996 307.281656,383.24 309.513667,383.24 C311.745678,383.24 313.812324,383.611996 315.713667,384.356 C317.61501,385.100004 319.24766,386.14366 320.611667,387.487 C321.975673,388.83034 323.050329,390.431991 323.835667,392.292 C324.621004,394.152009 325.013667,396.218655 325.013667,398.492 C325.013667,400.765345 324.621004,402.831991 323.835667,404.692 C323.050329,406.552009 321.975673,408.15366 320.611667,409.497 C319.24766,410.84034 317.61501,411.883996 315.713667,412.628 C313.812324,413.372004 311.745678,413.744 309.513667,413.744 C307.281656,413.744 305.21501,413.372004 303.313667,412.628 C301.412324,411.883996 299.779673,410.84034 298.415667,409.497 C297.05166,408.15366 295.977004,406.552009 295.191667,404.692 C294.406329,402.831991 294.013667,400.765345 294.013667,398.492 L294.013667,398.492 Z M299.221667,398.492 C299.221667,400.021341 299.459331,401.436993 299.934667,402.739 C300.410002,404.041007 301.102329,405.177662 302.011667,406.149 C302.921005,407.120338 304.005994,407.884997 305.266667,408.443 C306.52734,409.001003 307.942992,409.28 309.513667,409.28 C311.084341,409.28 312.499994,409.001003 313.760667,408.443 C315.02134,407.884997 316.106329,407.120338 317.015667,406.149 C317.925005,405.177662 318.617331,404.041007 319.092667,402.739 C319.568002,401.436993 319.805667,400.021341 319.805667,398.492 C319.805667,396.962659 319.568002,395.547007 319.092667,394.245 C318.617331,392.942993 317.925005,391.806338 317.015667,390.835 C316.106329,389.863662 315.02134,389.099003 313.760667,388.541 C312.499994,387.982997 311.084341,387.704 309.513667,387.704 C307.942992,387.704 306.52734,387.982997 305.266667,388.541 C304.005994,389.099003 302.921005,389.863662 302.011667,390.835 C301.102329,391.806338 300.410002,392.942993 299.934667,394.245 C299.459331,395.547007 299.221667,396.962659 299.221667,398.492 L299.221667,398.492 Z M332.267667,366.128 L337.103667,366.128 L337.103667,388.2 L337.227667,388.2 C338.55034,386.629325 340.089991,385.410004 341.846667,384.542 C343.603342,383.673996 345.535656,383.24 347.643667,383.24 C349.917011,383.24 351.993991,383.62233 353.874667,384.387 C355.755343,385.15167 357.356993,386.215993 358.679667,387.58 C360.00234,388.944007 361.035663,390.555991 361.779667,392.416 C362.52367,394.276009 362.895667,396.301322 362.895667,398.492 C362.895667,400.682678 362.52367,402.707991 361.779667,404.568 C361.035663,406.428009 360.012673,408.039993 358.710667,409.404 C357.40866,410.768007 355.869009,411.83233 354.091667,412.597 C352.314324,413.36167 350.41301,413.744 348.387667,413.744 C345.783654,413.744 343.50001,413.175672 341.536667,412.039 C339.573324,410.902328 338.137005,409.507342 337.227667,407.854 L337.103667,407.854 L337.103667,413 L332.267667,413 L332.267667,366.128 Z M337.103667,398.492 C337.103667,400.021341 337.341331,401.436993 337.816667,402.739 C338.292002,404.041007 338.984329,405.177662 339.893667,406.149 C340.803005,407.120338 341.887994,407.884997 343.148667,408.443 C344.40934,409.001003 345.824992,409.28 347.395667,409.28 C348.966341,409.28 350.381994,409.001003 351.642667,408.443 C352.90334,407.884997 353.988329,407.120338 354.897667,406.149 C355.807005,405.177662 356.499331,404.041007 356.974667,402.739 C357.450002,401.436993 357.687667,400.021341 357.687667,398.492 C357.687667,396.962659 357.450002,395.547007 356.974667,394.245 C356.499331,392.942993 355.807005,391.806338 354.897667,390.835 C353.988329,389.863662 352.90334,389.099003 351.642667,388.541 C350.381994,387.982997 348.966341,387.704 347.395667,387.704 C345.824992,387.704 344.40934,387.982997 343.148667,388.541 C341.887994,389.099003 340.803005,389.863662 339.893667,390.835 C338.984329,391.806338 338.292002,392.942993 337.816667,394.245 C337.341331,395.547007 337.103667,396.962659 337.103667,398.492 L337.103667,398.492 Z M386.269667,388.076 L377.713667,388.076 L377.713667,402.584 C377.713667,403.534671 377.734333,404.412996 377.775667,405.219 C377.817,406.025004 377.982332,406.727664 378.271667,407.327 C378.561001,407.926336 378.994997,408.401665 379.573667,408.753 C380.152336,409.104335 380.978995,409.28 382.053667,409.28 C382.756337,409.28 383.479663,409.197334 384.223667,409.032 C384.96767,408.866666 385.67033,408.618668 386.331667,408.288 L386.517667,412.69 C385.690996,413.062002 384.771338,413.330666 383.758667,413.496 C382.745995,413.661334 381.785005,413.744 380.875667,413.744 C379.139658,413.744 377.755005,413.516669 376.721667,413.062 C375.688328,412.607331 374.882336,411.966671 374.303667,411.14 C373.724997,410.313329 373.342668,409.290339 373.156667,408.071 C372.970666,406.851661 372.877667,405.498007 372.877667,404.01 L372.877667,388.076 L366.553667,388.076 L366.553667,383.984 L372.877667,383.984 L372.877667,375.738 L377.713667,375.738 L377.713667,383.984 L386.269667,383.984 L386.269667,388.076 Z M392.221667,390.866 C392.221667,389.543327 392.180334,388.303339 392.097667,387.146 C392.015,385.988661 391.973667,384.934671 391.973667,383.984 L396.561667,383.984 C396.561667,384.769337 396.582333,385.554663 396.623667,386.34 C396.665,387.125337 396.685667,387.931329 396.685667,388.758 L396.809667,388.758 C397.140335,388.05533 397.60533,387.373337 398.204667,386.712 C398.804003,386.050663 399.516996,385.461669 400.343667,384.945 C401.170337,384.428331 402.100328,384.015002 403.133667,383.705 C404.167005,383.394998 405.282994,383.24 406.481667,383.24 C406.812335,383.24 407.142998,383.260666 407.473667,383.302 C407.804335,383.343334 408.134998,383.425999 408.465667,383.55 L408.155667,388.448 C407.328996,388.199999 406.461005,388.076 405.551667,388.076 C402.575652,388.076 400.416007,389.03699 399.072667,390.959 C397.729327,392.88101 397.057667,395.515983 397.057667,398.864 L397.057667,413 L392.221667,413 L392.221667,390.866 Z M439.341667,406.118 C439.341667,407.440673 439.383,408.680661 439.465667,409.838 C439.548334,410.995339 439.589667,412.049329 439.589667,413 L435.001667,413 C435.001667,412.214663 434.981,411.429337 434.939667,410.644 C434.898333,409.858663 434.877667,409.052671 434.877667,408.226 L434.753667,408.226 C434.422998,408.92867 433.958003,409.610663 433.358667,410.272 C432.75933,410.933337 432.046337,411.522331 431.219667,412.039 C430.392996,412.555669 429.463005,412.968998 428.429667,413.279 C427.396328,413.589002 426.280339,413.744 425.081667,413.744 C423.180324,413.744 421.53734,413.45467 420.152667,412.876 C418.767993,412.29733 417.621005,411.491338 416.711667,410.458 C415.802329,409.424662 415.130669,408.174341 414.696667,406.707 C414.262664,405.239659 414.045667,403.638009 414.045667,401.902 L414.045667,383.984 L418.881667,383.984 L418.881667,401.406 C418.881667,403.844679 419.418995,405.76666 420.493667,407.172 C421.568339,408.57734 423.242322,409.28 425.515667,409.28 C427.086341,409.28 428.439994,409.011336 429.576667,408.474 C430.713339,407.936664 431.64333,407.172005 432.366667,406.18 C433.090004,405.187995 433.627332,404.010007 433.978667,402.646 C434.330002,401.281993 434.505667,399.773342 434.505667,398.12 L434.505667,383.984 L439.341667,383.984 L439.341667,406.118 Z M449.137667,405.374 C450.088338,406.572673 451.131994,407.52333 452.268667,408.226 C453.405339,408.92867 454.841658,409.28 456.577667,409.28 C457.32167,409.28 458.075996,409.197334 458.840667,409.032 C459.605337,408.866666 460.297664,408.598002 460.917667,408.226 C461.53767,407.853998 462.033665,407.389003 462.405667,406.831 C462.777669,406.272997 462.963667,405.601337 462.963667,404.816 C462.963667,404.030663 462.788002,403.390002 462.436667,402.894 C462.085332,402.397998 461.620336,401.974335 461.041667,401.623 C460.462997,401.271665 459.80167,400.992668 459.057667,400.786 C458.313663,400.579332 457.549004,400.393334 456.763667,400.228 C455.39966,399.938665 454.097673,399.608002 452.857667,399.236 C451.61766,398.863998 450.532671,398.378336 449.602667,397.779 C448.672662,397.179664 447.928669,396.404671 447.370667,395.454 C446.812664,394.503329 446.533667,393.284007 446.533667,391.796 C446.533667,390.39066 446.843664,389.150672 447.463667,388.076 C448.08367,387.001328 448.910328,386.11267 449.943667,385.41 C450.977005,384.70733 452.134327,384.170002 453.415667,383.798 C454.697006,383.425998 456.01966,383.24 457.383667,383.24 C459.450344,383.24 461.361991,383.653329 463.118667,384.48 C464.875342,385.306671 466.249662,386.649991 467.241667,388.51 L463.211667,391.176 C462.591664,390.142662 461.775338,389.30567 460.762667,388.665 C459.749995,388.02433 458.520341,387.704 457.073667,387.704 C456.41233,387.704 455.74067,387.786666 455.058667,387.952 C454.376663,388.117334 453.767003,388.365332 453.229667,388.696 C452.692331,389.026668 452.248002,389.450331 451.896667,389.967 C451.545332,390.483669 451.369667,391.072663 451.369667,391.734 C451.369667,392.354003 451.565998,392.880998 451.958667,393.315 C452.351335,393.749002 452.888663,394.131332 453.570667,394.462 C454.25267,394.792668 455.037996,395.081999 455.926667,395.33 C456.815338,395.578001 457.734995,395.784666 458.685667,395.95 C459.967006,396.198001 461.186328,396.518331 462.343667,396.911 C463.501006,397.303669 464.513662,397.830663 465.381667,398.492 C466.249671,399.153337 466.931664,399.979995 467.427667,400.972 C467.923669,401.964005 468.171667,403.183326 468.171667,404.63 C468.171667,406.283342 467.841003,407.688661 467.179667,408.846 C466.51833,410.003339 465.640005,410.943663 464.544667,411.667 C463.449328,412.390337 462.20934,412.917332 460.824667,413.248 C459.439993,413.578668 458.024341,413.744 456.577667,413.744 C454.097654,413.744 451.958676,413.36167 450.160667,412.597 C448.362658,411.83233 446.740341,410.416677 445.293667,408.35 L449.137667,405.374 Z M475.363667,383.984 L480.199667,383.984 L480.199667,413 L475.363667,413 L475.363667,383.984 Z M474.247667,372.638 C474.247667,371.687329 474.588663,370.86067 475.270667,370.158 C475.95267,369.45533 476.789662,369.104 477.781667,369.104 C478.773672,369.104 479.610663,369.45533 480.292667,370.158 C480.97467,370.86067 481.315667,371.687329 481.315667,372.638 C481.315667,373.671338 480.985003,374.518663 480.323667,375.18 C479.66233,375.841337 478.815005,376.172 477.781667,376.172 C476.748328,376.172 475.901003,375.841337 475.239667,375.18 C474.57833,374.518663 474.247667,373.671338 474.247667,372.638 L474.247667,372.638 Z M503.015667,413 L497.683667,413 L485.841667,383.984 L491.483667,383.984 L500.535667,406.738 L500.659667,406.738 L509.277667,383.984 L514.485667,383.984 L503.015667,413 Z M545.609667,407.73 C543.873658,409.962011 541.972344,411.522329 539.905667,412.411 C537.83899,413.299671 535.44168,413.744 532.713667,413.744 C530.440322,413.744 528.394342,413.341004 526.575667,412.535 C524.756991,411.728996 523.21734,410.644007 521.956667,409.28 C520.695994,407.915993 519.72467,406.304009 519.042667,404.444 C518.360663,402.583991 518.019667,400.600011 518.019667,398.492 C518.019667,396.259989 518.391663,394.203676 519.135667,392.323 C519.87967,390.442324 520.912993,388.83034 522.235667,387.487 C523.55834,386.14366 525.128991,385.100004 526.947667,384.356 C528.766342,383.611996 530.750323,383.24 532.899667,383.24 C534.92501,383.24 536.784992,383.580997 538.479667,384.263 C540.174342,384.945003 541.631327,385.936993 542.850667,387.239 C544.070006,388.541007 545.01033,390.132324 545.671667,392.013 C546.333003,393.893676 546.663667,396.032655 546.663667,398.43 L546.663667,399.98 L523.227667,399.98 C523.310334,401.220006 523.609997,402.408328 524.126667,403.545 C524.643336,404.681672 525.314996,405.673662 526.141667,406.521 C526.968337,407.368338 527.939661,408.039998 529.055667,408.536 C530.171672,409.032002 531.390993,409.28 532.713667,409.28 C534.821677,409.28 536.598993,408.908004 538.045667,408.164 C539.492341,407.419996 540.794328,406.324674 541.951667,404.878 L545.609667,407.73 Z M541.455667,395.888 C541.373,393.407988 540.567008,391.424007 539.037667,389.936 C537.508326,388.447993 535.400347,387.704 532.713667,387.704 C530.026987,387.704 527.857008,388.447993 526.203667,389.936 C524.550325,391.424007 523.558335,393.407988 523.227667,395.888 L541.455667,395.888 Z M571.029667,387.704 C572.517674,386.174659 574.284656,385.048337 576.330667,384.325 C578.376677,383.601663 580.453656,383.24 582.561667,383.24 C586.860355,383.24 589.960324,384.252657 591.861667,386.278 C593.76301,388.303343 594.713667,391.382646 594.713667,395.516 L594.713667,407.978 C594.713667,408.804671 594.755,409.662329 594.837667,410.551 C594.920334,411.439671 595.023666,412.255996 595.147667,413 L590.497667,413 C590.332333,412.338663 590.239333,411.605004 590.218667,410.799 C590.198,409.992996 590.187667,409.280003 590.187667,408.66 L590.063667,408.66 C589.112995,410.148007 587.842008,411.367329 586.250667,412.318 C584.659325,413.268671 582.747678,413.744 580.515667,413.744 C579.027659,413.744 577.632673,413.558002 576.330667,413.186 C575.02866,412.813998 573.892005,412.266337 572.920667,411.543 C571.949328,410.819663 571.174336,409.920672 570.595667,408.846 C570.016997,407.771328 569.727667,406.53134 569.727667,405.126 C569.727667,402.728655 570.34766,400.848007 571.587667,399.484 C572.827673,398.119993 574.367324,397.107337 576.206667,396.446 C578.046009,395.784663 580.029989,395.371334 582.158667,395.206 C584.287344,395.040666 586.240324,394.958 588.017667,394.958 L589.877667,394.958 L589.877667,394.09 C589.877667,391.981989 589.24734,390.390672 587.986667,389.316 C586.725994,388.241328 584.959011,387.704 582.685667,387.704 C581.114992,387.704 579.575341,387.962331 578.066667,388.479 C576.557992,388.995669 575.225006,389.791328 574.067667,390.866 L571.029667,387.704 Z M585.041667,399.05 C581.941651,399.05 579.482342,399.483996 577.663667,400.352 C575.844991,401.220004 574.935667,402.64599 574.935667,404.63 C574.935667,406.448676 575.545327,407.74033 576.764667,408.505 C577.984006,409.26967 579.502991,409.652 581.321667,409.652 C582.727007,409.652 583.956661,409.414336 585.010667,408.939 C586.064672,408.463664 586.942996,407.833337 587.645667,407.048 C588.348337,406.262663 588.885665,405.343005 589.257667,404.289 C589.629669,403.234995 589.836333,402.108673 589.877667,400.91 L589.877667,399.05 L585.041667,399.05 Z M628.875667,406.118 C628.875667,407.440673 628.917,408.680661 628.999667,409.838 C629.082334,410.995339 629.123667,412.049329 629.123667,413 L624.535667,413 C624.535667,412.214663 624.515,411.429337 624.473667,410.644 C624.432333,409.858663 624.411667,409.052671 624.411667,408.226 L624.287667,408.226 C623.956998,408.92867 623.492003,409.610663 622.892667,410.272 C622.29333,410.933337 621.580337,411.522331 620.753667,412.039 C619.926996,412.555669 618.997005,412.968998 617.963667,413.279 C616.930328,413.589002 615.814339,413.744 614.615667,413.744 C612.714324,413.744 611.07134,413.45467 609.686667,412.876 C608.301993,412.29733 607.155005,411.491338 606.245667,410.458 C605.336329,409.424662 604.664669,408.174341 604.230667,406.707 C603.796664,405.239659 603.579667,403.638009 603.579667,401.902 L603.579667,383.984 L608.415667,383.984 L608.415667,401.406 C608.415667,403.844679 608.952995,405.76666 610.027667,407.172 C611.102339,408.57734 612.776322,409.28 615.049667,409.28 C616.620341,409.28 617.973994,409.011336 619.110667,408.474 C620.247339,407.936664 621.17733,407.172005 621.900667,406.18 C622.624004,405.187995 623.161332,404.010007 623.512667,402.646 C623.864002,401.281993 624.039667,399.773342 624.039667,398.12 L624.039667,383.984 L628.875667,383.984 L628.875667,406.118 Z M653.923667,388.076 L645.367667,388.076 L645.367667,402.584 C645.367667,403.534671 645.388333,404.412996 645.429667,405.219 C645.471,406.025004 645.636332,406.727664 645.925667,407.327 C646.215001,407.926336 646.648997,408.401665 647.227667,408.753 C647.806336,409.104335 648.632995,409.28 649.707667,409.28 C650.410337,409.28 651.133663,409.197334 651.877667,409.032 C652.62167,408.866666 653.32433,408.618668 653.985667,408.288 L654.171667,412.69 C653.344996,413.062002 652.425338,413.330666 651.412667,413.496 C650.399995,413.661334 649.439005,413.744 648.529667,413.744 C646.793658,413.744 645.409005,413.516669 644.375667,413.062 C643.342328,412.607331 642.536336,411.966671 641.957667,411.14 C641.378997,410.313329 640.996668,409.290339 640.810667,408.071 C640.624666,406.851661 640.531667,405.498007 640.531667,404.01 L640.531667,388.076 L634.207667,388.076 L634.207667,383.984 L640.531667,383.984 L640.531667,375.738 L645.367667,375.738 L645.367667,383.984 L653.923667,383.984 L653.923667,388.076 Z M659.937667,366.128 L664.773667,366.128 L664.773667,388.014 L664.897667,388.014 C665.228335,387.43533 665.682997,386.867003 666.261667,386.309 C666.840336,385.750997 667.532663,385.244669 668.338667,384.79 C669.144671,384.335331 670.043662,383.963335 671.035667,383.674 C672.027672,383.384665 673.081661,383.24 674.197667,383.24 C676.09901,383.24 677.741993,383.52933 679.126667,384.108 C680.51134,384.68667 681.658329,385.492661 682.567667,386.526 C683.477005,387.559338 684.148664,388.809659 684.582667,390.277 C685.016669,391.744341 685.233667,393.345991 685.233667,395.082 L685.233667,413 L680.397667,413 L680.397667,395.578 C680.397667,393.139321 679.860339,391.21734 678.785667,389.812 C677.710995,388.40666 676.037011,387.704 673.763667,387.704 C672.192992,387.704 670.839339,387.972664 669.702667,388.51 C668.565994,389.047336 667.636004,389.811995 666.912667,390.804 C666.18933,391.796005 665.652002,392.973993 665.300667,394.338 C664.949332,395.702007 664.773667,397.210658 664.773667,398.864 L664.773667,413 L659.937667,413 L659.937667,366.128 Z M720.325667,407.73 C718.589658,409.962011 716.688344,411.522329 714.621667,412.411 C712.55499,413.299671 710.15768,413.744 707.429667,413.744 C705.156322,413.744 703.110342,413.341004 701.291667,412.535 C699.472991,411.728996 697.93334,410.644007 696.672667,409.28 C695.411994,407.915993 694.44067,406.304009 693.758667,404.444 C693.076663,402.583991 692.735667,400.600011 692.735667,398.492 C692.735667,396.259989 693.107663,394.203676 693.851667,392.323 C694.59567,390.442324 695.628993,388.83034 696.951667,387.487 C698.27434,386.14366 699.844991,385.100004 701.663667,384.356 C703.482342,383.611996 705.466323,383.24 707.615667,383.24 C709.64101,383.24 711.500992,383.580997 713.195667,384.263 C714.890342,384.945003 716.347327,385.936993 717.566667,387.239 C718.786006,388.541007 719.72633,390.132324 720.387667,392.013 C721.049003,393.893676 721.379667,396.032655 721.379667,398.43 L721.379667,399.98 L697.943667,399.98 C698.026334,401.220006 698.325997,402.408328 698.842667,403.545 C699.359336,404.681672 700.030996,405.673662 700.857667,406.521 C701.684337,407.368338 702.655661,408.039998 703.771667,408.536 C704.887672,409.032002 706.106993,409.28 707.429667,409.28 C709.537677,409.28 711.314993,408.908004 712.761667,408.164 C714.208341,407.419996 715.510328,406.324674 716.667667,404.878 L720.325667,407.73 Z M716.171667,395.888 C716.089,393.407988 715.283008,391.424007 713.753667,389.936 C712.224326,388.447993 710.116347,387.704 707.429667,387.704 C704.742987,387.704 702.573008,388.447993 700.919667,389.936 C699.266325,391.424007 698.274335,393.407988 697.943667,395.888 L716.171667,395.888 Z M728.881667,390.866 C728.881667,389.543327 728.840334,388.303339 728.757667,387.146 C728.675,385.988661 728.633667,384.934671 728.633667,383.984 L733.221667,383.984 C733.221667,384.769337 733.242333,385.554663 733.283667,386.34 C733.325,387.125337 733.345667,387.931329 733.345667,388.758 L733.469667,388.758 C733.800335,388.05533 734.26533,387.373337 734.864667,386.712 C735.464003,386.050663 736.176996,385.461669 737.003667,384.945 C737.830337,384.428331 738.760328,384.015002 739.793667,383.705 C740.827005,383.394998 741.942994,383.24 743.141667,383.24 C745.04301,383.24 746.685993,383.52933 748.070667,384.108 C749.45534,384.68667 750.602329,385.492661 751.511667,386.526 C752.421005,387.559338 753.092664,388.809659 753.526667,390.277 C753.960669,391.744341 754.177667,393.345991 754.177667,395.082 L754.177667,413 L749.341667,413 L749.341667,395.578 C749.341667,393.139321 748.804339,391.21734 747.729667,389.812 C746.654995,388.40666 744.981011,387.704 742.707667,387.704 C741.136992,387.704 739.783339,387.972664 738.646667,388.51 C737.509994,389.047336 736.580004,389.811995 735.856667,390.804 C735.13333,391.796005 734.596002,392.973993 734.244667,394.338 C733.893332,395.702007 733.717667,397.210658 733.717667,398.864 L733.717667,413 L728.881667,413 L728.881667,390.866 Z M779.225667,388.076 L770.669667,388.076 L770.669667,402.584 C770.669667,403.534671 770.690333,404.412996 770.731667,405.219 C770.773,406.025004 770.938332,406.727664 771.227667,407.327 C771.517001,407.926336 771.950997,408.401665 772.529667,408.753 C773.108336,409.104335 773.934995,409.28 775.009667,409.28 C775.712337,409.28 776.435663,409.197334 777.179667,409.032 C777.92367,408.866666 778.62633,408.618668 779.287667,408.288 L779.473667,412.69 C778.646996,413.062002 777.727338,413.330666 776.714667,413.496 C775.701995,413.661334 774.741005,413.744 773.831667,413.744 C772.095658,413.744 770.711005,413.516669 769.677667,413.062 C768.644328,412.607331 767.838336,411.966671 767.259667,411.14 C766.680997,410.313329 766.298668,409.290339 766.112667,408.071 C765.926666,406.851661 765.833667,405.498007 765.833667,404.01 L765.833667,388.076 L759.509667,388.076 L759.509667,383.984 L765.833667,383.984 L765.833667,375.738 L770.669667,375.738 L770.669667,383.984 L779.225667,383.984 L779.225667,388.076 Z M785.673667,383.984 L790.509667,383.984 L790.509667,413 L785.673667,413 L785.673667,383.984 Z M784.557667,372.638 C784.557667,371.687329 784.898663,370.86067 785.580667,370.158 C786.26267,369.45533 787.099662,369.104 788.091667,369.104 C789.083672,369.104 789.920663,369.45533 790.602667,370.158 C791.28467,370.86067 791.625667,371.687329 791.625667,372.638 C791.625667,373.671338 791.295003,374.518663 790.633667,375.18 C789.97233,375.841337 789.125005,376.172 788.091667,376.172 C787.058328,376.172 786.211003,375.841337 785.549667,375.18 C784.88833,374.518663 784.557667,373.671338 784.557667,372.638 L784.557667,372.638 Z M820.765667,391.238 C819.732328,389.997994 818.616339,389.099003 817.417667,388.541 C816.218994,387.982997 814.896341,387.704 813.449667,387.704 C811.837659,387.704 810.411673,387.982997 809.171667,388.541 C807.93166,389.099003 806.908671,389.873995 806.102667,390.866 C805.296663,391.858005 804.687002,393.004993 804.273667,394.307 C803.860331,395.609007 803.653667,397.003993 803.653667,398.492 C803.653667,399.980007 803.891331,401.374993 804.366667,402.677 C804.842002,403.979007 805.503329,405.125995 806.350667,406.118 C807.198004,407.110005 808.220994,407.884997 809.419667,408.443 C810.618339,409.001003 811.961659,409.28 813.449667,409.28 C816.632349,409.28 819.091658,408.081345 820.827667,405.684 L824.423667,409.094 C823.018326,410.706008 821.36501,411.883996 819.463667,412.628 C817.562324,413.372004 815.557677,413.744 813.449667,413.744 C811.217656,413.744 809.171676,413.372004 807.311667,412.628 C805.451657,411.883996 803.870673,410.830007 802.568667,409.466 C801.26666,408.101993 800.254004,406.490009 799.530667,404.63 C798.80733,402.769991 798.445667,400.724011 798.445667,398.492 C798.445667,396.301322 798.80733,394.276009 799.530667,392.416 C800.254004,390.555991 801.276993,388.944007 802.599667,387.58 C803.92234,386.215993 805.503324,385.15167 807.342667,384.387 C809.182009,383.62233 811.217656,383.24 813.449667,383.24 C815.599011,383.24 817.634657,383.611996 819.556667,384.356 C821.478676,385.100004 823.162993,386.257325 824.609667,387.828 L820.765667,391.238 Z M829.631667,387.704 C831.119674,386.174659 832.886656,385.048337 834.932667,384.325 C836.978677,383.601663 839.055656,383.24 841.163667,383.24 C845.462355,383.24 848.562324,384.252657 850.463667,386.278 C852.36501,388.303343 853.315667,391.382646 853.315667,395.516 L853.315667,407.978 C853.315667,408.804671 853.357,409.662329 853.439667,410.551 C853.522334,411.439671 853.625666,412.255996 853.749667,413 L849.099667,413 C848.934333,412.338663 848.841333,411.605004 848.820667,410.799 C848.8,409.992996 848.789667,409.280003 848.789667,408.66 L848.665667,408.66 C847.714995,410.148007 846.444008,411.367329 844.852667,412.318 C843.261325,413.268671 841.349678,413.744 839.117667,413.744 C837.629659,413.744 836.234673,413.558002 834.932667,413.186 C833.63066,412.813998 832.494005,412.266337 831.522667,411.543 C830.551328,410.819663 829.776336,409.920672 829.197667,408.846 C828.618997,407.771328 828.329667,406.53134 828.329667,405.126 C828.329667,402.728655 828.94966,400.848007 830.189667,399.484 C831.429673,398.119993 832.969324,397.107337 834.808667,396.446 C836.648009,395.784663 838.631989,395.371334 840.760667,395.206 C842.889344,395.040666 844.842324,394.958 846.619667,394.958 L848.479667,394.958 L848.479667,394.09 C848.479667,391.981989 847.84934,390.390672 846.588667,389.316 C845.327994,388.241328 843.561011,387.704 841.287667,387.704 C839.716992,387.704 838.177341,387.962331 836.668667,388.479 C835.159992,388.995669 833.827006,389.791328 832.669667,390.866 L829.631667,387.704 Z M843.643667,399.05 C840.543651,399.05 838.084342,399.483996 836.265667,400.352 C834.446991,401.220004 833.537667,402.64599 833.537667,404.63 C833.537667,406.448676 834.147327,407.74033 835.366667,408.505 C836.586006,409.26967 838.104991,409.652 839.923667,409.652 C841.329007,409.652 842.558661,409.414336 843.612667,408.939 C844.666672,408.463664 845.544996,407.833337 846.247667,407.048 C846.950337,406.262663 847.487665,405.343005 847.859667,404.289 C848.231669,403.234995 848.438333,402.108673 848.479667,400.91 L848.479667,399.05 L843.643667,399.05 Z M878.053667,388.076 L869.497667,388.076 L869.497667,402.584 C869.497667,403.534671 869.518333,404.412996 869.559667,405.219 C869.601,406.025004 869.766332,406.727664 870.055667,407.327 C870.345001,407.926336 870.778997,408.401665 871.357667,408.753 C871.936336,409.104335 872.762995,409.28 873.837667,409.28 C874.540337,409.28 875.263663,409.197334 876.007667,409.032 C876.75167,408.866666 877.45433,408.618668 878.115667,408.288 L878.301667,412.69 C877.474996,413.062002 876.555338,413.330666 875.542667,413.496 C874.529995,413.661334 873.569005,413.744 872.659667,413.744 C870.923658,413.744 869.539005,413.516669 868.505667,413.062 C867.472328,412.607331 866.666336,411.966671 866.087667,411.14 C865.508997,410.313329 865.126668,409.290339 864.940667,408.071 C864.754666,406.851661 864.661667,405.498007 864.661667,404.01 L864.661667,388.076 L858.337667,388.076 L858.337667,383.984 L864.661667,383.984 L864.661667,375.738 L869.497667,375.738 L869.497667,383.984 L878.053667,383.984 L878.053667,388.076 Z M884.501667,383.984 L889.337667,383.984 L889.337667,413 L884.501667,413 L884.501667,383.984 Z M883.385667,372.638 C883.385667,371.687329 883.726663,370.86067 884.408667,370.158 C885.09067,369.45533 885.927662,369.104 886.919667,369.104 C887.911672,369.104 888.748663,369.45533 889.430667,370.158 C890.11267,370.86067 890.453667,371.687329 890.453667,372.638 C890.453667,373.671338 890.123003,374.518663 889.461667,375.18 C888.80033,375.841337 887.953005,376.172 886.919667,376.172 C885.886328,376.172 885.039003,375.841337 884.377667,375.18 C883.71633,374.518663 883.385667,373.671338 883.385667,372.638 L883.385667,372.638 Z M897.273667,398.492 C897.273667,396.218655 897.666329,394.152009 898.451667,392.292 C899.237004,390.431991 900.31166,388.83034 901.675667,387.487 C903.039673,386.14366 904.672324,385.100004 906.573667,384.356 C908.47501,383.611996 910.541656,383.24 912.773667,383.24 C915.005678,383.24 917.072324,383.611996 918.973667,384.356 C920.87501,385.100004 922.50766,386.14366 923.871667,387.487 C925.235673,388.83034 926.310329,390.431991 927.095667,392.292 C927.881004,394.152009 928.273667,396.218655 928.273667,398.492 C928.273667,400.765345 927.881004,402.831991 927.095667,404.692 C926.310329,406.552009 925.235673,408.15366 923.871667,409.497 C922.50766,410.84034 920.87501,411.883996 918.973667,412.628 C917.072324,413.372004 915.005678,413.744 912.773667,413.744 C910.541656,413.744 908.47501,413.372004 906.573667,412.628 C904.672324,411.883996 903.039673,410.84034 901.675667,409.497 C900.31166,408.15366 899.237004,406.552009 898.451667,404.692 C897.666329,402.831991 897.273667,400.765345 897.273667,398.492 L897.273667,398.492 Z M902.481667,398.492 C902.481667,400.021341 902.719331,401.436993 903.194667,402.739 C903.670002,404.041007 904.362329,405.177662 905.271667,406.149 C906.181005,407.120338 907.265994,407.884997 908.526667,408.443 C909.78734,409.001003 911.202992,409.28 912.773667,409.28 C914.344341,409.28 915.759994,409.001003 917.020667,408.443 C918.28134,407.884997 919.366329,407.120338 920.275667,406.149 C921.185005,405.177662 921.877331,404.041007 922.352667,402.739 C922.828002,401.436993 923.065667,400.021341 923.065667,398.492 C923.065667,396.962659 922.828002,395.547007 922.352667,394.245 C921.877331,392.942993 921.185005,391.806338 920.275667,390.835 C919.366329,389.863662 918.28134,389.099003 917.020667,388.541 C915.759994,387.982997 914.344341,387.704 912.773667,387.704 C911.202992,387.704 909.78734,387.982997 908.526667,388.541 C907.265994,389.099003 906.181005,389.863662 905.271667,390.835 C904.362329,391.806338 903.670002,392.942993 903.194667,394.245 C902.719331,395.547007 902.481667,396.962659 902.481667,398.492 L902.481667,398.492 Z M935.775667,390.866 C935.775667,389.543327 935.734334,388.303339 935.651667,387.146 C935.569,385.988661 935.527667,384.934671 935.527667,383.984 L940.115667,383.984 C940.115667,384.769337 940.136333,385.554663 940.177667,386.34 C940.219,387.125337 940.239667,387.931329 940.239667,388.758 L940.363667,388.758 C940.694335,388.05533 941.15933,387.373337 941.758667,386.712 C942.358003,386.050663 943.070996,385.461669 943.897667,384.945 C944.724337,384.428331 945.654328,384.015002 946.687667,383.705 C947.721005,383.394998 948.836994,383.24 950.035667,383.24 C951.93701,383.24 953.579993,383.52933 954.964667,384.108 C956.34934,384.68667 957.496329,385.492661 958.405667,386.526 C959.315005,387.559338 959.986664,388.809659 960.420667,390.277 C960.854669,391.744341 961.071667,393.345991 961.071667,395.082 L961.071667,413 L956.235667,413 L956.235667,395.578 C956.235667,393.139321 955.698339,391.21734 954.623667,389.812 C953.548995,388.40666 951.875011,387.704 949.601667,387.704 C948.030992,387.704 946.677339,387.972664 945.540667,388.51 C944.403994,389.047336 943.474004,389.811995 942.750667,390.804 C942.02733,391.796005 941.490002,392.973993 941.138667,394.338 C940.787332,395.702007 940.611667,397.210658 940.611667,398.864 L940.611667,413 L935.775667,413 L935.775667,390.866 Z M989.963667,388.076 L983.639667,388.076 L983.639667,383.984 L989.963667,383.984 L989.963667,377.474 C989.963667,375.696658 990.128998,374.074341 990.459667,372.607 C990.790335,371.139659 991.358663,369.868672 992.164667,368.794 C992.970671,367.719328 994.034993,366.882336 995.357667,366.283 C996.68034,365.683664 998.31299,365.384 1000.25567,365.384 C1000.87567,365.384 1001.537,365.445999 1002.23967,365.57 C1002.94234,365.694001 1003.521,365.879999 1003.97567,366.128 L1003.29367,370.468 C1002.13633,370.054665 1001.04101,369.848 1000.00767,369.848 C998.76766,369.848 997.796337,370.064998 997.093667,370.499 C996.390996,370.933002 995.864002,371.53233 995.512667,372.297 C995.161332,373.06167 994.954667,373.981328 994.892667,375.056 C994.830666,376.130672 994.799667,377.287994 994.799667,378.528 L994.799667,383.984 L1001.86767,383.984 L1001.86767,388.076 L994.799667,388.076 L994.799667,413 L989.963667,413 L989.963667,388.076 Z M1005.33967,398.492 C1005.33967,396.218655 1005.73233,394.152009 1006.51767,392.292 C1007.303,390.431991 1008.37766,388.83034 1009.74167,387.487 C1011.10567,386.14366 1012.73832,385.100004 1014.63967,384.356 C1016.54101,383.611996 1018.60766,383.24 1020.83967,383.24 C1023.07168,383.24 1025.13832,383.611996 1027.03967,384.356 C1028.94101,385.100004 1030.57366,386.14366 1031.93767,387.487 C1033.30167,388.83034 1034.37633,390.431991 1035.16167,392.292 C1035.947,394.152009 1036.33967,396.218655 1036.33967,398.492 C1036.33967,400.765345 1035.947,402.831991 1035.16167,404.692 C1034.37633,406.552009 1033.30167,408.15366 1031.93767,409.497 C1030.57366,410.84034 1028.94101,411.883996 1027.03967,412.628 C1025.13832,413.372004 1023.07168,413.744 1020.83967,413.744 C1018.60766,413.744 1016.54101,413.372004 1014.63967,412.628 C1012.73832,411.883996 1011.10567,410.84034 1009.74167,409.497 C1008.37766,408.15366 1007.303,406.552009 1006.51767,404.692 C1005.73233,402.831991 1005.33967,400.765345 1005.33967,398.492 L1005.33967,398.492 Z M1010.54767,398.492 C1010.54767,400.021341 1010.78533,401.436993 1011.26067,402.739 C1011.736,404.041007 1012.42833,405.177662 1013.33767,406.149 C1014.247,407.120338 1015.33199,407.884997 1016.59267,408.443 C1017.85334,409.001003 1019.26899,409.28 1020.83967,409.28 C1022.41034,409.28 1023.82599,409.001003 1025.08667,408.443 C1026.34734,407.884997 1027.43233,407.120338 1028.34167,406.149 C1029.251,405.177662 1029.94333,404.041007 1030.41867,402.739 C1030.894,401.436993 1031.13167,400.021341 1031.13167,398.492 C1031.13167,396.962659 1030.894,395.547007 1030.41867,394.245 C1029.94333,392.942993 1029.251,391.806338 1028.34167,390.835 C1027.43233,389.863662 1026.34734,389.099003 1025.08667,388.541 C1023.82599,387.982997 1022.41034,387.704 1020.83967,387.704 C1019.26899,387.704 1017.85334,387.982997 1016.59267,388.541 C1015.33199,389.099003 1014.247,389.863662 1013.33767,390.835 C1012.42833,391.806338 1011.736,392.942993 1011.26067,394.245 C1010.78533,395.547007 1010.54767,396.962659 1010.54767,398.492 L1010.54767,398.492 Z M1043.84167,390.866 C1043.84167,389.543327 1043.80033,388.303339 1043.71767,387.146 C1043.635,385.988661 1043.59367,384.934671 1043.59367,383.984 L1048.18167,383.984 C1048.18167,384.769337 1048.20233,385.554663 1048.24367,386.34 C1048.285,387.125337 1048.30567,387.931329 1048.30567,388.758 L1048.42967,388.758 C1048.76033,388.05533 1049.22533,387.373337 1049.82467,386.712 C1050.424,386.050663 1051.137,385.461669 1051.96367,384.945 C1052.79034,384.428331 1053.72033,384.015002 1054.75367,383.705 C1055.78701,383.394998 1056.90299,383.24 1058.10167,383.24 C1058.43233,383.24 1058.763,383.260666 1059.09367,383.302 C1059.42433,383.343334 1059.755,383.425999 1060.08567,383.55 L1059.77567,388.448 C1058.949,388.199999 1058.081,388.076 1057.17167,388.076 C1054.19565,388.076 1052.03601,389.03699 1050.69267,390.959 C1049.34933,392.88101 1048.67767,395.515983 1048.67767,398.864 L1048.67767,413 L1043.84167,413 L1043.84167,390.866 Z M1083.76967,369.104 L1090.34167,369.104 L1115.76167,405.56 L1115.88567,405.56 L1115.88567,369.104 L1121.09367,369.104 L1121.09367,413 L1114.52167,413 L1089.10167,376.544 L1088.97767,376.544 L1088.97767,413 L1083.76967,413 L1083.76967,369.104 Z M1129.46367,398.492 C1129.46367,396.218655 1129.85633,394.152009 1130.64167,392.292 C1131.427,390.431991 1132.50166,388.83034 1133.86567,387.487 C1135.22967,386.14366 1136.86232,385.100004 1138.76367,384.356 C1140.66501,383.611996 1142.73166,383.24 1144.96367,383.24 C1147.19568,383.24 1149.26232,383.611996 1151.16367,384.356 C1153.06501,385.100004 1154.69766,386.14366 1156.06167,387.487 C1157.42567,388.83034 1158.50033,390.431991 1159.28567,392.292 C1160.071,394.152009 1160.46367,396.218655 1160.46367,398.492 C1160.46367,400.765345 1160.071,402.831991 1159.28567,404.692 C1158.50033,406.552009 1157.42567,408.15366 1156.06167,409.497 C1154.69766,410.84034 1153.06501,411.883996 1151.16367,412.628 C1149.26232,413.372004 1147.19568,413.744 1144.96367,413.744 C1142.73166,413.744 1140.66501,413.372004 1138.76367,412.628 C1136.86232,411.883996 1135.22967,410.84034 1133.86567,409.497 C1132.50166,408.15366 1131.427,406.552009 1130.64167,404.692 C1129.85633,402.831991 1129.46367,400.765345 1129.46367,398.492 L1129.46367,398.492 Z M1134.67167,398.492 C1134.67167,400.021341 1134.90933,401.436993 1135.38467,402.739 C1135.86,404.041007 1136.55233,405.177662 1137.46167,406.149 C1138.371,407.120338 1139.45599,407.884997 1140.71667,408.443 C1141.97734,409.001003 1143.39299,409.28 1144.96367,409.28 C1146.53434,409.28 1147.94999,409.001003 1149.21067,408.443 C1150.47134,407.884997 1151.55633,407.120338 1152.46567,406.149 C1153.375,405.177662 1154.06733,404.041007 1154.54267,402.739 C1155.018,401.436993 1155.25567,400.021341 1155.25567,398.492 C1155.25567,396.962659 1155.018,395.547007 1154.54267,394.245 C1154.06733,392.942993 1153.375,391.806338 1152.46567,390.835 C1151.55633,389.863662 1150.47134,389.099003 1149.21067,388.541 C1147.94999,387.982997 1146.53434,387.704 1144.96367,387.704 C1143.39299,387.704 1141.97734,387.982997 1140.71667,388.541 C1139.45599,389.099003 1138.371,389.863662 1137.46167,390.835 C1136.55233,391.806338 1135.86,392.942993 1135.38467,394.245 C1134.90933,395.547007 1134.67167,396.962659 1134.67167,398.492 L1134.67167,398.492 Z M1192.08367,407.854 L1191.95967,407.854 C1191.05033,409.507342 1189.61401,410.902328 1187.65067,412.039 C1185.68732,413.175672 1183.40368,413.744 1180.79967,413.744 C1178.77432,413.744 1176.87301,413.36167 1175.09567,412.597 C1173.31832,411.83233 1171.77867,410.768007 1170.47667,409.404 C1169.17466,408.039993 1168.15167,406.428009 1167.40767,404.568 C1166.66366,402.707991 1166.29167,400.682678 1166.29167,398.492 C1166.29167,396.301322 1166.66366,394.276009 1167.40767,392.416 C1168.15167,390.555991 1169.18499,388.944007 1170.50767,387.58 C1171.83034,386.215993 1173.43199,385.15167 1175.31267,384.387 C1177.19334,383.62233 1179.27032,383.24 1181.54367,383.24 C1183.65168,383.24 1185.58399,383.673996 1187.34067,384.542 C1189.09734,385.410004 1190.63699,386.629325 1191.95967,388.2 L1192.08367,388.2 L1192.08367,366.128 L1196.91967,366.128 L1196.91967,413 L1192.08367,413 L1192.08367,407.854 Z M1192.08367,398.492 C1192.08367,396.962659 1191.846,395.547007 1191.37067,394.245 C1190.89533,392.942993 1190.203,391.806338 1189.29367,390.835 C1188.38433,389.863662 1187.29934,389.099003 1186.03867,388.541 C1184.77799,387.982997 1183.36234,387.704 1181.79167,387.704 C1180.22099,387.704 1178.80534,387.982997 1177.54467,388.541 C1176.28399,389.099003 1175.199,389.863662 1174.28967,390.835 C1173.38033,391.806338 1172.688,392.942993 1172.21267,394.245 C1171.73733,395.547007 1171.49967,396.962659 1171.49967,398.492 C1171.49967,400.021341 1171.73733,401.436993 1172.21267,402.739 C1172.688,404.041007 1173.38033,405.177662 1174.28967,406.149 C1175.199,407.120338 1176.28399,407.884997 1177.54467,408.443 C1178.80534,409.001003 1180.22099,409.28 1181.79167,409.28 C1183.36234,409.28 1184.77799,409.001003 1186.03867,408.443 C1187.29934,407.884997 1188.38433,407.120338 1189.29367,406.149 C1190.203,405.177662 1190.89533,404.041007 1191.37067,402.739 C1191.846,401.436993 1192.08367,400.021341 1192.08367,398.492 L1192.08367,398.492 Z M1231.76367,407.73 C1230.02766,409.962011 1228.12634,411.522329 1226.05967,412.411 C1223.99299,413.299671 1221.59568,413.744 1218.86767,413.744 C1216.59432,413.744 1214.54834,413.341004 1212.72967,412.535 C1210.91099,411.728996 1209.37134,410.644007 1208.11067,409.28 C1206.84999,407.915993 1205.87867,406.304009 1205.19667,404.444 C1204.51466,402.583991 1204.17367,400.600011 1204.17367,398.492 C1204.17367,396.259989 1204.54566,394.203676 1205.28967,392.323 C1206.03367,390.442324 1207.06699,388.83034 1208.38967,387.487 C1209.71234,386.14366 1211.28299,385.100004 1213.10167,384.356 C1214.92034,383.611996 1216.90432,383.24 1219.05367,383.24 C1221.07901,383.24 1222.93899,383.580997 1224.63367,384.263 C1226.32834,384.945003 1227.78533,385.936993 1229.00467,387.239 C1230.22401,388.541007 1231.16433,390.132324 1231.82567,392.013 C1232.487,393.893676 1232.81767,396.032655 1232.81767,398.43 L1232.81767,399.98 L1209.38167,399.98 C1209.46433,401.220006 1209.764,402.408328 1210.28067,403.545 C1210.79734,404.681672 1211.469,405.673662 1212.29567,406.521 C1213.12234,407.368338 1214.09366,408.039998 1215.20967,408.536 C1216.32567,409.032002 1217.54499,409.28 1218.86767,409.28 C1220.97568,409.28 1222.75299,408.908004 1224.19967,408.164 C1225.64634,407.419996 1226.94833,406.324674 1228.10567,404.878 L1231.76367,407.73 Z M1227.60967,395.888 C1227.527,393.407988 1226.72101,391.424007 1225.19167,389.936 C1223.66233,388.447993 1221.55435,387.704 1218.86767,387.704 C1216.18099,387.704 1214.01101,388.447993 1212.35767,389.936 C1210.70433,391.424007 1209.71233,393.407988 1209.38167,395.888 L1227.60967,395.888 Z M1244.34967,405.932 C1245.38301,405.932 1246.26133,406.293663 1246.98467,407.017 C1247.708,407.740337 1248.06967,408.618662 1248.06967,409.652 C1248.06967,410.685339 1247.68734,411.563663 1246.92267,412.287 C1246.158,413.010337 1245.30034,413.372 1244.34967,413.372 C1243.399,413.372 1242.54134,413.010337 1241.77667,412.287 C1241.012,411.563663 1240.62967,410.685339 1240.62967,409.652 C1240.62967,408.618662 1240.99133,407.740337 1241.71467,407.017 C1242.438,406.293663 1243.31633,405.932 1244.34967,405.932 L1244.34967,405.932 Z M1262.82567,419.51 C1262.82567,420.254004 1262.712,421.111662 1262.48467,422.083 C1262.25733,423.054338 1261.83367,423.963662 1261.21367,424.811 C1260.59366,425.658338 1259.71534,426.381664 1258.57867,426.981 C1257.44199,427.580336 1255.98501,427.88 1254.20767,427.88 C1253.629,427.88 1253.06067,427.838667 1252.50267,427.756 C1251.94466,427.673333 1251.397,427.508001 1250.85967,427.26 L1251.41767,423.044 C1252.203,423.292001 1252.98833,423.416 1253.77367,423.416 C1254.683,423.416 1255.41666,423.250668 1255.97467,422.92 C1256.53267,422.589332 1256.95633,422.145003 1257.24567,421.587 C1257.535,421.028997 1257.73133,420.378004 1257.83467,419.634 C1257.938,418.889996 1257.98967,418.104671 1257.98967,417.278 L1257.98967,383.984 L1262.82567,383.984 L1262.82567,419.51 Z M1256.87367,372.638 C1256.87367,371.687329 1257.21466,370.86067 1257.89667,370.158 C1258.57867,369.45533 1259.41566,369.104 1260.40767,369.104 C1261.39967,369.104 1262.23666,369.45533 1262.91867,370.158 C1263.60067,370.86067 1263.94167,371.687329 1263.94167,372.638 C1263.94167,373.671338 1263.611,374.518663 1262.94967,375.18 C1262.28833,375.841337 1261.44101,376.172 1260.40767,376.172 C1259.37433,376.172 1258.527,375.841337 1257.86567,375.18 C1257.20433,374.518663 1256.87367,373.671338 1256.87367,372.638 L1256.87367,372.638 Z M1273.05567,405.374 C1274.00634,406.572673 1275.04999,407.52333 1276.18667,408.226 C1277.32334,408.92867 1278.75966,409.28 1280.49567,409.28 C1281.23967,409.28 1281.994,409.197334 1282.75867,409.032 C1283.52334,408.866666 1284.21566,408.598002 1284.83567,408.226 C1285.45567,407.853998 1285.95166,407.389003 1286.32367,406.831 C1286.69567,406.272997 1286.88167,405.601337 1286.88167,404.816 C1286.88167,404.030663 1286.706,403.390002 1286.35467,402.894 C1286.00333,402.397998 1285.53834,401.974335 1284.95967,401.623 C1284.381,401.271665 1283.71967,400.992668 1282.97567,400.786 C1282.23166,400.579332 1281.467,400.393334 1280.68167,400.228 C1279.31766,399.938665 1278.01567,399.608002 1276.77567,399.236 C1275.53566,398.863998 1274.45067,398.378336 1273.52067,397.779 C1272.59066,397.179664 1271.84667,396.404671 1271.28867,395.454 C1270.73066,394.503329 1270.45167,393.284007 1270.45167,391.796 C1270.45167,390.39066 1270.76166,389.150672 1271.38167,388.076 C1272.00167,387.001328 1272.82833,386.11267 1273.86167,385.41 C1274.89501,384.70733 1276.05233,384.170002 1277.33367,383.798 C1278.61501,383.425998 1279.93766,383.24 1281.30167,383.24 C1283.36834,383.24 1285.27999,383.653329 1287.03667,384.48 C1288.79334,385.306671 1290.16766,386.649991 1291.15967,388.51 L1287.12967,391.176 C1286.50966,390.142662 1285.69334,389.30567 1284.68067,388.665 C1283.66799,388.02433 1282.43834,387.704 1280.99167,387.704 C1280.33033,387.704 1279.65867,387.786666 1278.97667,387.952 C1278.29466,388.117334 1277.685,388.365332 1277.14767,388.696 C1276.61033,389.026668 1276.166,389.450331 1275.81467,389.967 C1275.46333,390.483669 1275.28767,391.072663 1275.28767,391.734 C1275.28767,392.354003 1275.484,392.880998 1275.87667,393.315 C1276.26934,393.749002 1276.80666,394.131332 1277.48867,394.462 C1278.17067,394.792668 1278.956,395.081999 1279.84467,395.33 C1280.73334,395.578001 1281.653,395.784666 1282.60367,395.95 C1283.88501,396.198001 1285.10433,396.518331 1286.26167,396.911 C1287.41901,397.303669 1288.43166,397.830663 1289.29967,398.492 C1290.16767,399.153337 1290.84966,399.979995 1291.34567,400.972 C1291.84167,401.964005 1292.08967,403.183326 1292.08967,404.63 C1292.08967,406.283342 1291.759,407.688661 1291.09767,408.846 C1290.43633,410.003339 1289.55801,410.943663 1288.46267,411.667 C1287.36733,412.390337 1286.12734,412.917332 1284.74267,413.248 C1283.35799,413.578668 1281.94234,413.744 1280.49567,413.744 C1278.01565,413.744 1275.87668,413.36167 1274.07867,412.597 C1272.28066,411.83233 1270.65834,410.416677 1269.21167,408.35 L1273.05567,405.374 Z" id="Simple,-unobtrusive-" fill="#FFFFFF"></path>
            </g>
        </g>
    </g>
</svg>