<svg width="138" height="24" viewBox="0 0 138 24" fill="none" xmlns="http://www.w3.org/2000/svg">
<path d="M7.62369 17.2576C7.54428 17.2576 7.47149 17.31 7.44502 17.3819L7.29282 17.8658L6.33991 20.8151C6.31344 20.9198 6.23403 20.9394 6.1877 20.9394H3.22971C3.12383 20.9394 3.07751 20.8348 3.10398 20.7628L8.81482 3.17808C8.84129 3.09961 8.9207 3.05383 8.96703 3.05383H13.5992C13.6522 3.05383 13.725 3.10615 13.7514 3.17808L19.4358 20.7628C19.4623 20.8413 19.4093 20.9394 19.3101 20.9394H16.3521C16.2991 20.9394 16.2263 20.8871 16.1999 20.8151L15.3528 18.147L15.0948 17.3819C15.0683 17.3034 14.9889 17.2576 14.9161 17.2576H7.62369ZM8.41778 14.3345C8.39131 14.413 8.44425 14.4587 8.52366 14.4587H14.0294C14.1088 14.4587 14.1352 14.4064 14.1088 14.3345L11.4022 5.95084C11.3493 5.82659 11.1971 5.82659 11.1442 5.95084L8.41778 14.3345Z" fill="#87F596"/>
<path d="M21.4807 20.946C21.4013 20.946 21.355 20.8936 21.355 20.8217V3.18465C21.355 3.10617 21.4079 3.06039 21.4807 3.06039H24.313C24.3924 3.06039 24.4387 3.11271 24.4387 3.18465V18.0555C24.4387 18.134 24.4652 18.1601 24.5446 18.1601H33.2862C33.3656 18.1601 33.4119 18.2124 33.4119 18.2844V20.8282C33.4119 20.9067 33.359 20.9525 33.2862 20.9525L21.4807 20.946Z" fill="#87F596"/>
<path d="M39.513 20.8217C39.513 20.9002 39.4601 20.9459 39.3873 20.9459H36.5551C36.4756 20.9459 36.4293 20.8936 36.4293 20.8217V5.97699C36.4293 5.89852 36.3764 5.85274 36.3036 5.85274H31.5457C31.4662 5.85274 31.4199 5.80043 31.4199 5.72849V3.17808C31.4199 3.09961 31.4729 3.05383 31.5457 3.05383H44.4033C44.4827 3.05383 44.5291 3.10615 44.5291 3.17808V5.72195C44.5291 5.80043 44.4761 5.8462 44.4033 5.8462H39.6454C39.566 5.8462 39.5197 5.89852 39.5197 5.97045L39.513 20.8217Z" fill="#87F596"/>
<path d="M56.9634 13.3994C56.9369 13.4255 56.9369 13.4517 56.9634 13.504L60.2324 20.7759C60.2854 20.8806 60.206 20.9525 60.1067 20.9525H57.1487C57.0958 20.9525 57.0428 20.9002 57.023 20.874L54.0385 14.2168C54.012 14.1645 53.9856 14.0925 53.9128 14.0925H49.8761C49.7967 14.0925 49.7702 14.1187 49.7702 14.1972V20.8282C49.7702 20.9067 49.7173 20.9525 49.6445 20.9525H46.8123C46.7328 20.9525 46.6865 20.9002 46.6865 20.8282V3.19118C46.6865 3.1127 46.7395 3.06693 46.8123 3.06693H54.3495C57.2546 3.06693 59.7758 5.48 59.7758 8.57973C59.7692 10.7051 58.6111 12.4838 56.9634 13.3994ZM54.1907 11.2871C55.501 11.2348 56.7119 10.0446 56.7119 8.56665C56.7119 7.0691 55.4546 5.84622 54.0914 5.84622H49.8761C49.7967 5.84622 49.7702 5.89853 49.7702 5.95085V11.1628C49.7702 11.2413 49.8232 11.2871 49.896 11.2871H54.1907Z" fill="#87F596"/>
<path d="M75.148 14.7465C75.148 18.3301 72.2429 21.201 68.5901 21.201C64.9637 21.201 62.0322 18.3301 62.0322 14.7465V3.18462C62.0322 3.10615 62.0852 3.06037 62.158 3.06037H64.9902C65.0696 3.06037 65.1159 3.11269 65.1159 3.18462V14.7465C65.1159 16.6299 66.6843 18.1536 68.5901 18.1536C70.4959 18.1536 72.0643 16.6299 72.0643 14.7465V3.17808C72.0643 3.09961 72.1172 3.05383 72.19 3.05383H75.0222C75.1017 3.05383 75.148 3.10615 75.148 3.17808V14.7465Z" fill="#87F596"/>
<path d="M78.053 20.946C77.9736 20.946 77.9272 20.8936 77.9272 20.8217V3.18465C77.9272 3.10617 77.9802 3.06039 78.053 3.06039H80.8852C80.9646 3.06039 81.0109 3.11271 81.0109 3.18465V20.8217C81.0109 20.9002 80.958 20.946 80.8852 20.946H78.053Z" fill="#87F596"/>
<path d="M90.4475 21.201C85.3322 21.201 83.3999 18.4282 83.3999 16.0413C83.3999 15.9628 83.4528 15.9171 83.5256 15.9171H86.4836C86.563 15.9171 86.6094 15.9694 86.6094 16.0413C86.6094 17.2642 88.2571 18.4021 90.4408 18.4021C92.5783 18.4021 94.1731 17.2053 94.1731 15.7078C94.1731 14.5895 93.0944 13.4974 90.4408 13.2686C86.2255 12.8893 83.5256 11.6664 83.5256 8.08272C83.5256 4.72795 86.7152 2.7988 89.9313 2.7988C93.3525 2.7988 96.4892 4.65602 96.4892 7.95847C96.4892 8.03694 96.4362 8.08272 96.3833 8.08272H93.3988C93.3194 8.08272 93.2731 8.0304 93.2731 7.95847C93.2996 6.86637 92.0621 5.59771 89.9313 5.59771C88.1843 5.59771 86.7417 6.71596 86.7417 8.08926C86.7417 9.63912 88.6674 10.0184 90.4475 10.2211C93.1474 10.5285 97.3891 11.0844 97.3891 15.7078C97.3891 19.0626 94.7422 21.201 90.4475 21.201Z" fill="#87F596"/>
<path d="M106.329 20.8217C106.329 20.9002 106.276 20.9459 106.204 20.9459H103.371C103.292 20.9459 103.246 20.8936 103.246 20.8217V5.97699C103.246 5.89852 103.193 5.85274 103.12 5.85274H98.3621C98.2827 5.85274 98.2363 5.80043 98.2363 5.72849V3.17808C98.2363 3.09961 98.2893 3.05383 98.3621 3.05383H111.22C111.299 3.05383 111.345 3.10615 111.345 3.17808V5.72195C111.345 5.80043 111.292 5.8462 111.22 5.8462H106.462C106.382 5.8462 106.336 5.89852 106.336 5.97045V20.8217H106.329Z" fill="#87F596"/>
<path d="M113.569 20.946C113.496 20.946 113.443 20.8871 113.443 20.8217V3.18465C113.443 3.11271 113.503 3.06039 113.569 3.06039H116.401C116.474 3.06039 116.527 3.11925 116.527 3.18465V20.8217C116.527 20.8936 116.468 20.946 116.401 20.946H113.569Z" fill="#87F596"/>
<path d="M126.757 21.201C121.331 21.201 118.604 17.3884 118.604 11.9999C118.604 6.61133 121.331 2.7988 126.757 2.7988C132.183 2.7988 134.91 6.61133 134.91 11.9999C134.91 17.3884 132.183 21.201 126.757 21.201ZM131.694 11.9999C131.694 8.01079 129.947 5.59771 126.757 5.59771C123.568 5.59771 121.821 8.01079 121.821 11.9999C121.821 15.989 123.568 18.4021 126.757 18.4021C129.947 18.4021 131.694 15.989 131.694 11.9999Z" fill="#87F596"/>
<path d="M129.94 17.1661H127.108C127.035 17.1661 126.982 17.1073 126.982 17.0419V14.243C126.982 14.171 127.042 14.1187 127.108 14.1187H129.94C130.013 14.1187 130.066 14.1776 130.066 14.243V17.0419C130.073 17.1138 130.013 17.1661 129.94 17.1661Z" fill="#87F596"/>
<path d="M135.148 22.3126H132.316C132.243 22.3126 132.19 22.2538 132.19 22.1884V19.3895C132.19 19.3175 132.25 19.2652 132.316 19.2652H135.148C135.221 19.2652 135.274 19.3241 135.274 19.3895V22.1884C135.281 22.2603 135.221 22.3126 135.148 22.3126Z" fill="#87F596"/>
</svg>
